<?xml version="1.0" encoding="UTF-8" standalone="no"?>
<!-- Created with Inkscape (http://www.inkscape.org/) -->

<svg
   width="100mm"
   height="100mm"
   viewBox="0 0 100 100"
   version="1.1"
   id="svg27942"
   inkscape:version="1.1.2 (0a00cf5339, 2022-02-04, custom)"
   sodipodi:docname="big-performance-on.svg"
   xmlns:inkscape="http://www.inkscape.org/namespaces/inkscape"
   xmlns:sodipodi="http://sodipodi.sourceforge.net/DTD/sodipodi-0.dtd"
   xmlns="http://www.w3.org/2000/svg"
   xmlns:svg="http://www.w3.org/2000/svg">
  <sodipodi:namedview
     id="namedview27944"
     pagecolor="#ffffff"
     bordercolor="#666666"
     borderopacity="1.0"
     inkscape:pageshadow="2"
     inkscape:pageopacity="0.0"
     inkscape:pagecheckerboard="0"
     inkscape:document-units="mm"
     showgrid="false"
     inkscape:zoom="1.5797402"
     inkscape:cx="418.73973"
     inkscape:cy="193.38623"
     inkscape:window-width="2560"
     inkscape:window-height="1008"
     inkscape:window-x="1680"
     inkscape:window-y="0"
     inkscape:window-maximized="1"
     inkscape:current-layer="layer1" />
  <defs
     id="defs27939" />
      <style type="text/css" id="current-color-scheme">
      .ColorScheme-Text {
        color:#31363b;
      }
      .ColorScheme-Background {
        color:#eff0f1;
      }
      .ColorScheme-Highlight {
        color:#3daee9;
      }
      .ColorScheme-ViewText {
        color:#31363b;
      }
      .ColorScheme-ViewBackground {
        color:#fcfcfc;
      }
      .ColorScheme-ViewHover {
        color:#93cee9;
      }
      .ColorScheme-ViewFocus{
        color:#3daee9;
      }
      .ColorScheme-ButtonText {
        color:#31363b;
      }
      .ColorScheme-ButtonBackground {
        color:#eff0f1;
      }
      .ColorScheme-ButtonHover {
        color:#93cee9;
      }
      .ColorScheme-ButtonFocus{
        color:#3daee9;
      }
      </style>
  <g
     inkscape:label="Camada 1"
     inkscape:groupmode="layer"
     id="layer1">
    <path
       id="path115"
       style="fill:currentColor;fill-opacity:1;fill-rule:nonzero;stroke:none;stroke-width:0.0369954"
       d="M 189.08008 28.507812 A 160.40764 160.37256 0 0 0 28.671875 188.88086 A 160.40764 160.37256 0 0 0 189.08008 349.25391 A 160.40764 160.37256 0 0 0 349.48828 188.88086 A 160.40764 160.37256 0 0 0 189.08008 28.507812 z M 189.08008 40.511719 A 148.40028 148.36783 0 0 1 337.48047 188.88086 A 148.40028 148.36783 0 0 1 189.08008 337.25 A 148.40028 148.36783 0 0 1 40.681641 188.88086 A 148.40028 148.36783 0 0 1 189.08008 40.511719 z M 189.08203 69.164062 C 188.06097 69.164062 187.0471 69.179188 186.03711 69.205078 C 166.72921 69.693408 148.54708 74.824278 132.57617 83.529297 C 130.79299 84.50228 129.03628 85.516155 127.30859 86.574219 C 94.138519 106.9328 71.703423 143.14719 70.660156 184.58203 C 70.630676 185.59201 70.617188 186.60937 70.617188 187.62305 C 70.617188 188.64412 70.630374 189.65799 70.660156 190.66797 C 71.148501 210.08316 76.335095 228.3603 85.128906 244.38672 C 86.098189 246.1699 87.123985 247.92619 88.189453 249.64648 C 92.887875 257.26754 98.425504 264.31955 104.67773 270.66797 L 131.55859 243.78711 C 117.40786 229.29602 108.6875 209.47624 108.6875 187.62305 C 108.6875 143.22857 144.68014 107.23633 189.08203 107.23633 C 206.72884 107.23633 223.0553 112.92387 236.31445 122.57227 C 237.33466 123.38272 238.35327 124.24786 239.37305 125.10742 L 266.44531 98.035156 C 261.55485 93.806719 256.33921 89.94439 250.80273 86.548828 C 249.07506 85.487064 247.31443 84.472986 245.53125 83.5 C 229.57512 74.817186 211.41615 69.693408 192.12305 69.205078 C 191.11305 69.178999 190.0957 69.164063 189.08203 69.164062 z M 279.55273 111.31445 L 252.50195 138.36523 C 252.85432 138.79446 253.20635 139.16742 253.55859 139.61133 C 257.97213 145.52381 261.58585 152.06493 264.25 159.07422 L 301.125 149.19336 C 298.92756 142.80778 296.20979 136.66139 293.00195 130.81836 C 292.02899 129.03888 291.01252 127.28432 289.94336 125.55664 C 286.84482 120.5379 283.34336 115.80059 279.55273 111.31445 z M 305.73828 167.27344 L 268.78906 177.17383 C 269.2331 180.59483 269.4707 184.08107 269.4707 187.62305 C 269.4707 192.06871 269.0903 196.4243 268.39648 200.67383 L 305.28711 210.55859 C 306.58518 203.96898 307.35655 197.19171 307.50781 190.26172 C 307.53351 189.38493 307.54297 188.50354 307.54297 187.62305 C 307.54297 186.4725 307.52368 185.31914 307.49023 184.17969 C 307.32473 178.4271 306.69932 172.79366 305.73828 167.27344 z M 188.72852 171.85352 C 178.19577 171.90269 170.24565 181.36285 172.01562 191.74414 C 173.39188 199.80479 180.46075 205.80238 188.63867 205.84766 C 191.45057 205.86429 194.08966 205.20216 196.41016 204.03125 L 246.01367 239.4082 C 247.0984 240.18135 248.60114 239.98371 249.44922 238.95703 C 250.29993 237.92983 250.20825 236.42041 249.24219 235.5 L 205.12305 193.48438 C 205.80417 191.07648 205.96931 188.46549 205.49023 185.80273 C 204.0422 177.75392 196.90502 171.81784 188.72852 171.85352 z M 188.85938 182.72656 C 190.28772 182.74659 191.61824 183.26435 192.66211 184.13086 C 193.88724 185.13799 194.72574 186.618 194.87305 188.32227 C 195.16411 191.68919 192.66104 194.66232 189.29688 194.95312 C 187.63145 195.09712 186.06663 194.55949 184.87109 193.57227 C 183.6457 192.56235 182.80944 191.08124 182.66211 189.37695 C 182.37131 186.0128 184.87799 183.03882 188.24219 182.74805 C 188.44968 182.73028 188.65532 182.72392 188.85938 182.72656 z M 263.27734 218.61719 C 259.33177 228.05434 253.64112 236.58025 246.60352 243.78711 L 273.47656 270.66406 C 279.89526 264.14917 285.56396 256.89357 290.34375 249.04688 C 291.39812 247.3155 292.40706 245.55445 293.36523 243.76758 C 296.00604 238.88468 298.26762 233.77594 300.21094 228.51367 L 263.27734 218.61719 z "
       transform="scale(0.26458333)" class="ColorScheme-Text"/>
  </g>
</svg>
