<?xml version="1.0" encoding="UTF-8" standalone="no"?>
<!-- Created with Inkscape (http://www.inkscape.org/) -->

<svg
   width="100mm"
   height="100mm"
   viewBox="0 0 100 100"
   version="1.1"
   id="svg27942"
   inkscape:version="1.1.2 (0a00cf5339, 2022-02-04, custom)"
   sodipodi:docname="big-performance-off.svg"
   xmlns:inkscape="http://www.inkscape.org/namespaces/inkscape"
   xmlns:sodipodi="http://sodipodi.sourceforge.net/DTD/sodipodi-0.dtd"
   xmlns="http://www.w3.org/2000/svg"
   xmlns:svg="http://www.w3.org/2000/svg">
  <sodipodi:namedview
     id="namedview27944"
     pagecolor="#ffffff"
     bordercolor="#666666"
     borderopacity="1.0"
     inkscape:pageshadow="2"
     inkscape:pageopacity="0.0"
     inkscape:pagecheckerboard="0"
     inkscape:document-units="mm"
     showgrid="false"
     inkscape:zoom="1.9698351"
     inkscape:cx="193.67104"
     inkscape:cy="190.11744"
     inkscape:window-width="2560"
     inkscape:window-height="1008"
     inkscape:window-x="1680"
     inkscape:window-y="0"
     inkscape:window-maximized="1"
     inkscape:current-layer="layer1" />
  <defs
     id="defs27939" />
      <style type="text/css" id="current-color-scheme">
      .ColorScheme-Text {
        color:#31363b;
      }
      .ColorScheme-Background {
        color:#eff0f1;
      }
      .ColorScheme-Highlight {
        color:#3daee9;
      }
      .ColorScheme-ViewText {
        color:#31363b;
      }
      .ColorScheme-ViewBackground {
        color:#fcfcfc;
      }
      .ColorScheme-ViewHover {
        color:#93cee9;
      }
      .ColorScheme-ViewFocus{
        color:#3daee9;
      }
      .ColorScheme-ButtonText {
        color:#31363b;
      }
      .ColorScheme-ButtonBackground {
        color:#eff0f1;
      }
      .ColorScheme-ButtonHover {
        color:#93cee9;
      }
      .ColorScheme-ButtonFocus{
        color:#3daee9;
      }
      </style>
  <g
     inkscape:label="Camada 1"
     inkscape:groupmode="layer"
     id="layer1">
    <path
       id="path9829"
       style="opacity:0.5;fill:currentColor;fill-opacity:1;fill-rule:nonzero;stroke:none;stroke-width:0.0278605"
       d="M 188.97656 28.603516 C 100.38546 28.603198 28.568095 100.40483 28.568359 188.97656 C 28.568095 277.5483 100.38546 349.34993 188.97656 349.34961 C 277.56767 349.3499 349.38503 277.54829 349.38477 188.97656 C 349.38503 100.40485 277.56767 28.603221 188.97656 28.603516 z M 188.97656 40.607422 C 270.93634 40.607358 337.37767 107.03472 337.37695 188.97656 C 337.37767 270.91841 270.93634 337.34576 188.97656 337.3457 C 107.01755 337.3447 40.577407 270.91766 40.578125 188.97656 C 40.577407 107.03548 107.01755 40.608423 188.97656 40.607422 z M 188.97852 69.259766 C 187.95744 69.259766 186.9436 69.274891 185.93359 69.300781 C 166.62569 69.789111 148.44354 74.919981 132.47266 83.625 C 130.68948 84.597983 128.93278 85.611858 127.20508 86.669922 C 94.035036 107.0285 71.599904 143.24289 70.556641 184.67773 C 70.526404 185.68771 70.513672 186.70507 70.513672 187.71875 C 70.513672 188.73982 70.524893 189.75369 70.556641 190.76367 C 71.044993 210.17886 76.231602 228.456 85.025391 244.48242 C 85.994688 246.2656 87.020489 248.0219 88.085938 249.74219 C 92.784381 257.36325 98.321972 264.41525 104.57422 270.76367 L 131.45508 243.88281 C 117.30438 229.39173 108.58398 209.57194 108.58398 187.71875 C 108.58398 143.32427 144.57663 107.33203 188.97852 107.33203 C 206.62532 107.33203 222.95179 113.01957 236.21094 122.66797 C 237.23115 123.47842 238.24978 124.34358 239.26953 125.20312 L 266.3418 98.130859 C 261.45135 93.902422 256.23574 90.040093 250.69922 86.644531 C 248.97156 85.582767 247.21092 84.56869 245.42773 83.595703 C 229.47159 74.912889 211.31262 69.789111 192.01953 69.300781 C 191.00953 69.274703 189.99218 69.259766 188.97852 69.259766 z M 188.61133 108.41602 C 187.27757 108.42017 186.17633 109.4576 186.08789 110.78906 L 182.0625 171.58008 C 179.77679 172.59858 177.66444 174.14394 175.92578 176.2168 C 170.67027 182.48259 170.68206 191.76551 175.94531 198.02344 C 182.72696 206.08264 195.08273 206.13145 201.92383 198.125 C 207.23437 191.90677 207.31658 182.63891 202.11523 176.32812 C 200.32759 174.15748 198.12932 172.55232 195.74414 171.51953 L 191.15625 110.76562 C 191.05571 109.43738 189.94492 108.4101 188.61328 108.41602 L 188.61133 108.41602 z M 279.44922 111.41016 L 252.39844 138.46094 C 252.75069 138.89017 253.10283 139.26312 253.45508 139.70703 C 257.86862 145.61951 261.48233 152.16063 264.14648 159.16992 L 301.02148 149.28906 C 298.82403 142.90348 296.10631 136.75709 292.89844 130.91406 C 291.92551 129.13458 290.909 127.38002 289.83984 125.65234 C 286.74131 120.6336 283.23982 115.89629 279.44922 111.41016 z M 305.63281 167.36914 L 268.68555 177.26953 C 269.12957 180.69053 269.36719 184.17677 269.36719 187.71875 C 269.36719 192.16441 268.98678 196.52 268.29297 200.76953 L 305.18359 210.6543 C 306.48167 204.06468 307.25304 197.28741 307.4043 190.35742 C 307.43075 189.48063 307.4375 188.59924 307.4375 187.71875 C 307.4375 186.5682 307.4184 185.41485 307.38477 184.27539 C 307.21922 178.5228 306.59383 172.88936 305.63281 167.36914 z M 189.00195 180.98633 C 190.57083 180.99334 192.13552 181.59786 193.32422 182.79688 C 194.50113 183.98394 195.09051 185.53156 195.09766 187.08203 C 195.10522 188.66994 194.50388 190.2585 193.28906 191.46289 C 190.89099 193.84013 187.00236 193.81988 184.625 191.42188 C 183.45202 190.23873 182.86052 188.69107 182.85742 187.14062 C 182.84608 185.5547 183.44538 183.96412 184.66016 182.75977 C 185.86014 181.57011 187.43308 180.97931 189.00195 180.98633 z M 263.17383 218.71289 C 259.22827 228.15004 253.53763 236.67595 246.5 243.88281 L 273.37305 270.75977 C 279.79174 264.24488 285.46045 256.98927 290.24023 249.14258 C 291.29461 247.4112 292.30357 245.65015 293.26172 243.86328 C 295.90255 238.98038 298.1641 233.87164 300.10742 228.60938 L 263.17383 218.71289 z "
       transform="scale(0.26458333)" class="ColorScheme-Text"/>
  </g>
</svg>
