<?xml version="1.0" encoding="UTF-8"?>
<!-- Icon from Tabler Icons (outline), MIT License. https://github.com/tabler/tabler-icons
     Strokes flattened to fills with picosvg for GTK symbolic recoloring. -->
<svg height="16px" width="16px" viewBox="0 0 24 24" xmlns="http://www.w3.org/2000/svg">
    <g fill="#2e3436">
        <path d="M2,12 Q2,7.858 4.929,4.929 Q7.858,2 12,2 Q16.142,2 19.071,4.929 Q22,7.858 22,12 Q22,16.142 19.071,19.071 Q16.142,22 12,22 Q7.858,22 4.929,19.071 Q2,16.142 2,12 Z M4,12 Q4,15.314 6.343,17.657 Q8.686,20 12,20 Q15.314,20 17.657,17.657 Q20,15.314 20,12 Q20,8.686 17.657,6.343 Q15.314,4 12,4 Q8.686,4 6.343,6.343 Q4,8.686 4,12 Z"/>
        <path d="M10.707,9.293 L12,10.586 L13.293,9.293 Q13.586,9 14,9 Q14.414,9 14.707,9.293 Q15,9.586 15,10 Q15,10.414 14.707,10.707 L13.414,12 L14.707,13.293 Q15,13.586 15,14 Q15,14.414 14.707,14.707 Q14.414,15 14,15 Q13.586,15 13.293,14.707 L12,13.414 L10.707,14.707 Q10.414,15 10,15 Q9.586,15 9.293,14.707 Q9,14.414 9,14 Q9,13.586 9.293,13.293 L10.586,12 L9.293,10.707 Q9,10.414 9,10 Q9,9.586 9.293,9.293 Q9.586,9 10,9 Q10.414,9 10.707,9.293 Z"/>
    </g>
</svg>
