<?xml version="1.0" encoding="UTF-8"?>
<!-- Icon from Tabler Icons (outline), MIT License. https://github.com/tabler/tabler-icons
     Strokes flattened to fills with picosvg for GTK symbolic recoloring. -->
<svg height="16px" width="16px" viewBox="0 0 24 24" xmlns="http://www.w3.org/2000/svg">
    <g fill="#2e3436">
        <path d="M3,5 L3,19 A1 1 0 0 0 4.504,19.864 L16.504,12.864 A1 1 0 0 0 16.504,11.136 L4.504,4.136 A1 1 0 0 0 3,5 Z"/>
        <path d="M20,4 A1 1 0 0 1 20.993,4.883 L21,5 L21,19 A1 1 0 0 1 19.007,19.117 L19,19 L19,5 A1 1 0 0 1 20,4 Z"/>
    </g>
</svg>
