<?xml version="1.0" encoding="UTF-8"?>
<!-- Icon from Tabler Icons (outline), MIT License. https://github.com/tabler/tabler-icons
     Strokes flattened to fills with picosvg for GTK symbolic recoloring. -->
<svg height="16px" width="16px" viewBox="0 0 24 24" xmlns="http://www.w3.org/2000/svg">
    <g fill="#2e3436">
        <path d="M12,2 Q14.142,2 14.647,4.081 Q14.734,4.439 15.073,4.58 Q15.413,4.721 15.727,4.529 Q17.556,3.415 19.071,4.929 Q20.586,6.444 19.472,8.273 Q19.281,8.587 19.421,8.927 Q19.562,9.266 19.919,9.353 Q22,9.858 22,12 Q22,14.142 19.919,14.647 Q19.561,14.734 19.42,15.073 Q19.279,15.413 19.471,15.727 Q20.585,17.556 19.071,19.071 Q17.556,20.586 15.727,19.472 Q15.413,19.281 15.073,19.421 Q14.734,19.562 14.647,19.919 Q14.142,22 12,22 Q9.858,22 9.353,19.919 Q9.266,19.561 8.927,19.42 Q8.587,19.279 8.273,19.471 Q6.444,20.585 4.929,19.071 Q3.414,17.556 4.528,15.727 Q4.719,15.413 4.579,15.073 Q4.438,14.734 4.081,14.647 Q2,14.142 2,12 Q2,9.858 4.081,9.353 Q4.439,9.266 4.58,8.927 Q4.721,8.587 4.529,8.273 Q3.415,6.444 4.929,4.929 Q6.444,3.414 8.273,4.528 Q8.589,4.72 8.928,4.579 Q9.266,4.439 9.353,4.081 Q9.858,2 12,2 Z M11.297,4.553 L11.297,4.553 Q10.97,5.898 9.693,6.427 Q8.417,6.956 7.233,6.236 Q6.747,5.94 6.344,6.343 Q5.941,6.746 6.237,7.231 Q6.957,8.413 6.428,9.692 Q5.898,10.971 4.553,11.297 Q4,11.431 4,12 Q4,12.569 4.553,12.703 Q5.897,13.03 6.426,14.308 Q6.956,15.586 6.236,16.767 Q5.94,17.253 6.343,17.656 Q6.746,18.059 7.231,17.763 Q8.413,17.043 9.692,17.572 Q10.971,18.102 11.297,19.447 Q11.431,20 12,20 Q12.569,20 12.703,19.447 Q13.03,18.103 14.308,17.574 Q15.586,17.044 16.767,17.764 Q17.253,18.06 17.656,17.657 Q18.059,17.254 17.763,16.769 Q17.043,15.587 17.572,14.308 Q18.102,13.029 19.447,12.703 Q20,12.569 20,12 Q20,11.431 19.447,11.297 Q18.103,10.97 17.574,9.692 Q17.044,8.414 17.764,7.233 Q18.06,6.747 17.657,6.344 Q17.254,5.941 16.769,6.237 Q15.587,6.957 14.308,6.428 Q13.029,5.898 12.703,4.553 Q12.569,4 12,4 Q11.431,4 11.297,4.553 Z"/>
        <path d="M8,12 Q8,8 12,8 Q16,8 16,12 Q16,16 12,16 Q8,16 8,12 Z M10,12 Q10,14 12,14 Q14,14 14,12 Q14,10 12,10 Q10,10 10,12 Z"/>
    </g>
</svg>
