<?xml version="1.0" encoding="UTF-8"?>
<!-- Icon from Tabler Icons (outline), MIT License. https://github.com/tabler/tabler-icons
     Strokes flattened to fills with picosvg for GTK symbolic recoloring. -->
<svg height="16px" width="16px" viewBox="0 0 24 24" xmlns="http://www.w3.org/2000/svg">
    <g fill="#2e3436">
        <path d="M15.6,7.2 Q18.593,9.445 17.894,13.121 Q17.817,13.528 17.475,13.761 Q17.132,13.994 16.725,13.916 Q16.318,13.839 16.085,13.497 Q15.852,13.154 15.93,12.747 Q16.396,10.297 14.4,8.8 Q14.069,8.551 14.01,8.141 Q13.951,7.731 14.2,7.4 Q14.449,7.069 14.859,7.01 Q15.269,6.951 15.6,7.2 Z M16.242,16.243 Q15.941,16.544 15.6,16.8 Q15.269,17.049 14.859,16.99 Q14.449,16.931 14.2,16.6 Q13.951,16.269 14.01,15.859 Q14.069,15.449 14.4,15.2 Q14.627,15.03 14.828,14.829 Q15.121,14.536 15.535,14.536 Q15.949,14.536 16.242,14.829 Q16.535,15.122 16.535,15.536 Q16.535,15.95 16.242,16.243 Z"/>
        <path d="M18.329,4.222 Q21.085,6.45 21.824,9.916 Q22.562,13.382 20.953,16.54 Q20.765,16.909 20.371,17.037 Q19.977,17.165 19.608,16.977 Q19.239,16.789 19.111,16.395 Q18.983,16.001 19.171,15.632 Q20.458,13.106 19.867,10.333 Q19.277,7.56 17.071,5.778 Q16.749,5.517 16.706,5.106 Q16.662,4.694 16.922,4.371 Q17.183,4.049 17.594,4.006 Q18.006,3.962 18.329,4.222 Z M19.091,19.094 Q18.727,19.456 18.329,19.778 Q18.006,20.038 17.594,19.994 Q17.183,19.951 16.922,19.629 Q16.662,19.306 16.706,18.894 Q16.749,18.483 17.071,18.222 Q17.39,17.965 17.681,17.676 Q17.975,17.384 18.389,17.385 Q18.804,17.386 19.095,17.68 Q19.387,17.974 19.386,18.388 Q19.385,18.803 19.091,19.094 Z"/>
        <path d="M12,11 L12,18.924 Q12.199,20.368 10.78,20.841 Q9.366,21.313 8.659,20.048 L5.511,16 L4,16 Q2,16 2,14 L2,10 Q2,8 4,8 L5.511,8 L6.505,6.722 Q6.759,6.395 7.17,6.344 Q7.581,6.292 7.908,6.547 Q8.235,6.801 8.286,7.212 Q8.338,7.623 8.083,7.95 L6.789,9.614 Q6.489,10 6,10 L4,10 L4,14 L6,14 Q6.489,14 6.789,14.386 L10,18.514 L10,11 Q10,10.586 10.293,10.293 Q10.586,10 11,10 Q11.414,10 11.707,10.293 Q12,10.586 12,11 Z M8.28,4.44 L8.659,3.952 Q9.366,2.687 10.78,3.159 Q12.199,3.632 12,5.076 L12,7 Q12,7.414 11.707,7.707 Q11.414,8 11,8 Q10.586,8 10.293,7.707 Q10,7.414 10,7 L10,5.486 L9.858,5.668 Q9.604,5.995 9.193,6.046 Q8.782,6.098 8.455,5.843 Q8.128,5.589 8.077,5.178 Q8.025,4.767 8.28,4.44 Z"/>
        <path d="M3.707,2.293 L21.707,20.293 Q22,20.586 22,21 Q22,21.414 21.707,21.707 Q21.414,22 21,22 Q20.586,22 20.293,21.707 L2.293,3.707 Q2,3.414 2,3 Q2,2.586 2.293,2.293 Q2.586,2 3,2 Q3.414,2 3.707,2.293 Z"/>
    </g>
</svg>
