<?xml version="1.0" encoding="UTF-8"?>
<!-- Icon from Tabler Icons (outline), MIT License. https://github.com/tabler/tabler-icons
     Strokes flattened to fills with picosvg for GTK symbolic recoloring. -->
<svg height="16px" width="16px" viewBox="0 0 24 24" xmlns="http://www.w3.org/2000/svg">
    <g fill="#2e3436">
        <path d="M15.6,7.2 Q18,9 18,12 Q18,15 15.6,16.8 Q15.269,17.049 14.859,16.99 Q14.449,16.931 14.2,16.6 Q13.951,16.269 14.01,15.859 Q14.069,15.449 14.4,15.2 Q16,14 16,12 Q16,10 14.4,8.8 Q14.069,8.551 14.01,8.141 Q13.951,7.731 14.2,7.4 Q14.449,7.069 14.859,7.01 Q15.269,6.951 15.6,7.2 Z"/>
        <path d="M4,16 Q2,16 2,14 L2,10 Q2,8 4,8 L5.511,8 L8.659,3.952 Q9.366,2.687 10.78,3.159 Q12.199,3.632 12,5.076 L12,18.924 Q12.199,20.368 10.78,20.841 Q9.366,21.313 8.659,20.048 L5.511,16 L4,16 Z M6.823,14.429 L10,18.514 L10,5.486 L6.789,9.614 Q6.489,10 6,10 L4,10 L4,14 L5.945,14 Q6.003,13.998 6.062,14.002 Q6.267,14.013 6.441,14.099 Q6.615,14.183 6.75,14.338 Q6.79,14.382 6.823,14.429 Z"/>
    </g>
</svg>
