<?xml version="1.0" encoding="UTF-8"?>
<!-- Icon from Tabler Icons (outline), MIT License. https://github.com/tabler/tabler-icons
     Strokes flattened to fills with picosvg for GTK symbolic recoloring. -->
<svg height="16px" width="16px" viewBox="0 0 24 24" xmlns="http://www.w3.org/2000/svg">
    <g fill="#2e3436">
        <path   d="M14,19 L14,17 Q14,14 17,14 L19,14 Q19.414,14 19.707,14.293 Q20,14.586 20,15 Q20,15.414 19.707,15.707 Q19.414,16 19,16 L17,16 Q16,16 16,17 L16,19 Q16,19.414 15.707,19.707 Q15.414,20 15,20 Q14.586,20 14.293,19.707 Q14,19.414 14,19 Z"/>
        <path   d="M16,5 L16,7 Q16,8 17,8 L19,8 Q19.414,8 19.707,8.293 Q20,8.586 20,9 Q20,9.414 19.707,9.707 Q19.414,10 19,10 L17,10 Q14,10 14,7 L14,5 Q14,4.586 14.293,4.293 Q14.586,4 15,4 Q15.414,4 15.707,4.293 Q16,4.586 16,5 Z"/>
        <path   d="M5,14 L7,14 Q10,14 10,17 L10,19 Q10,19.414 9.707,19.707 Q9.414,20 9,20 Q8.586,20 8.293,19.707 Q8,19.414 8,19 L8,17 Q8,16 7,16 L5,16 Q4.586,16 4.293,15.707 Q4,15.414 4,15 Q4,14.586 4.293,14.293 Q4.586,14 5,14 Z"/>
        <path   d="M5,8 L7,8 Q8,8 8,7 L8,5 Q8,4.586 8.293,4.293 Q8.586,4 9,4 Q9.414,4 9.707,4.293 Q10,4.586 10,5 L10,7 Q10,10 7,10 L5,10 Q4.586,10 4.293,9.707 Q4,9.414 4,9 Q4,8.586 4.293,8.293 Q4.586,8 5,8 Z"/>
    </g>
</svg>
