<?xml version="1.0" encoding="UTF-8"?>
<!-- Icon from Tabler Icons (outline), MIT License. https://github.com/tabler/tabler-icons
     Strokes flattened to fills with picosvg for GTK symbolic recoloring. -->
<svg height="16px" width="16px" viewBox="0 0 24 24" xmlns="http://www.w3.org/2000/svg">
    <g fill="#2e3436">
        <path d="M9,5 L20,5 Q20.414,5 20.707,5.293 Q21,5.586 21,6 Q21,6.414 20.707,6.707 Q20.414,7 20,7 L9,7 Q8.586,7 8.293,6.707 Q8,6.414 8,6 Q8,5.586 8.293,5.293 Q8.586,5 9,5 Z"/>
        <path d="M9,11 L20,11 Q20.414,11 20.707,11.293 Q21,11.586 21,12 Q21,12.414 20.707,12.707 Q20.414,13 20,13 L9,13 Q8.586,13 8.293,12.707 Q8,12.414 8,12 Q8,11.586 8.293,11.293 Q8.586,11 9,11 Z"/>
        <path d="M9,17 L20,17 Q20.414,17 20.707,17.293 Q21,17.586 21,18 Q21,18.414 20.707,18.707 Q20.414,19 20,19 L9,19 Q8.586,19 8.293,18.707 Q8,18.414 8,18 Q8,17.586 8.293,17.293 Q8.586,17 9,17 Z"/>
        <path d="M6,6 L6,6.01 Q6,6.424 5.707,6.717 Q5.414,7.01 5,7.01 Q4.586,7.01 4.293,6.717 Q4,6.424 4,6.01 L4,6 Q4,5.586 4.293,5.293 Q4.586,5 5,5 Q5.414,5 5.707,5.293 Q6,5.586 6,6 Z"/>
        <path d="M6,12 L6,12.01 Q6,12.424 5.707,12.717 Q5.414,13.01 5,13.01 Q4.586,13.01 4.293,12.717 Q4,12.424 4,12.01 L4,12 Q4,11.586 4.293,11.293 Q4.586,11 5,11 Q5.414,11 5.707,11.293 Q6,11.586 6,12 Z"/>
        <path d="M6,18 L6,18.01 Q6,18.424 5.707,18.717 Q5.414,19.01 5,19.01 Q4.586,19.01 4.293,18.717 Q4,18.424 4,18.01 L4,18 Q4,17.586 4.293,17.293 Q4.586,17 5,17 Q5.414,17 5.707,17.293 Q6,17.586 6,18 Z"/>
    </g>
</svg>
