<?xml version="1.0" encoding="UTF-8"?>
<!-- Icon from Tabler Icons (outline), MIT License. https://github.com/tabler/tabler-icons
     Strokes flattened to fills with picosvg for GTK symbolic recoloring. -->
<svg height="16px" width="16px" viewBox="0 0 24 24" xmlns="http://www.w3.org/2000/svg">
    <g fill="#2e3436">
        <path d="M4,6 L20,6 Q20.414,6 20.707,6.293 Q21,6.586 21,7 Q21,7.414 20.707,7.707 Q20.414,8 20,8 L4,8 Q3.586,8 3.293,7.707 Q3,7.414 3,7 Q3,6.586 3.293,6.293 Q3.586,6 4,6 Z"/>
        <path d="M11,11 L11,17 Q11,17.414 10.707,17.707 Q10.414,18 10,18 Q9.586,18 9.293,17.707 Q9,17.414 9,17 L9,11 Q9,10.586 9.293,10.293 Q9.586,10 10,10 Q10.414,10 10.707,10.293 Q11,10.586 11,11 Z"/>
        <path d="M15,11 L15,17 Q15,17.414 14.707,17.707 Q14.414,18 14,18 Q13.586,18 13.293,17.707 Q13,17.414 13,17 L13,11 Q13,10.586 13.293,10.293 Q13.586,10 14,10 Q14.414,10 14.707,10.293 Q15,10.586 15,11 Z"/>
        <path d="M5.997,6.917 L6.997,18.917 Q7,18.958 7,19 Q7,20 8,20 L16,20 Q17,20 17,19 Q17,18.958 17.003,18.917 L18.003,6.917 Q18.038,6.504 18.354,6.237 Q18.67,5.969 19.083,6.003 Q19.496,6.038 19.763,6.354 Q20.031,6.67 19.997,7.083 L19,19.044 Q18.978,22 16,22 L8,22 Q5.022,22 5,19.044 L4.003,7.083 Q3.969,6.67 4.237,6.354 Q4.504,6.038 4.917,6.003 Q5.33,5.969 5.646,6.237 Q5.962,6.504 5.997,6.917 Z"/>
        <path d="M8,7 L8,4 Q8,2 10,2 L14,2 Q16,2 16,4 L16,7 Q16,7.414 15.707,7.707 Q15.414,8 15,8 Q14.586,8 14.293,7.707 Q14,7.414 14,7 L14,4 L10,4 L10,7 Q10,7.414 9.707,7.707 Q9.414,8 9,8 Q8.586,8 8.293,7.707 Q8,7.414 8,7 Z"/>
    </g>
</svg>
