<?xml version="1.0" encoding="UTF-8"?>
<!-- Icon from Tabler Icons (outline), MIT License. https://github.com/tabler/tabler-icons
     Strokes flattened to fills with picosvg for GTK symbolic recoloring. -->
<svg height="16px" width="16px" viewBox="0 0 24 24" xmlns="http://www.w3.org/2000/svg">
    <g fill="#2e3436">
        <path   d="M5,8 L8,8 L8,5 Q8,4.586 8.293,4.293 Q8.586,4 9,4 Q9.414,4 9.707,4.293 Q10,4.586 10,5 L10,9 Q10,9.414 9.707,9.707 Q9.414,10 9,10 L5,10 Q4.586,10 4.293,9.707 Q4,9.414 4,9 Q4,8.586 4.293,8.293 Q4.586,8 5,8 Z"/>
        <path   d="M3.707,2.293 L9.707,8.293 Q10,8.586 10,9 Q10,9.414 9.707,9.707 Q9.414,10 9,10 Q8.586,10 8.293,9.707 L2.293,3.707 Q2,3.414 2,3 Q2,2.586 2.293,2.293 Q2.586,2 3,2 Q3.414,2 3.707,2.293 Z"/>
        <path   d="M5,14 L9,14 Q9.414,14 9.707,14.293 Q10,14.586 10,15 L10,19 Q10,19.414 9.707,19.707 Q9.414,20 9,20 Q8.586,20 8.293,19.707 Q8,19.414 8,19 L8,16 L5,16 Q4.586,16 4.293,15.707 Q4,15.414 4,15 Q4,14.586 4.293,14.293 Q4.586,14 5,14 Z"/>
        <path   d="M2.293,20.293 L8.293,14.293 Q8.586,14 9,14 Q9.414,14 9.707,14.293 Q10,14.586 10,15 Q10,15.414 9.707,15.707 L3.707,21.707 Q3.414,22 3,22 Q2.586,22 2.293,21.707 Q2,21.414 2,21 Q2,20.586 2.293,20.293 Z"/>
        <path   d="M19,10 L15,10 Q14.586,10 14.293,9.707 Q14,9.414 14,9 L14,5 Q14,4.586 14.293,4.293 Q14.586,4 15,4 Q15.414,4 15.707,4.293 Q16,4.586 16,5 L16,8 L19,8 Q19.414,8 19.707,8.293 Q20,8.586 20,9 Q20,9.414 19.707,9.707 Q19.414,10 19,10 Z"/>
        <path   d="M14.293,8.293 L20.293,2.293 Q20.586,2 21,2 Q21.414,2 21.707,2.293 Q22,2.586 22,3 Q22,3.414 21.707,3.707 L15.707,9.707 Q15.414,10 15,10 Q14.586,10 14.293,9.707 Q14,9.414 14,9 Q14,8.586 14.293,8.293 Z"/>
        <path   d="M19,16 L16,16 L16,19 Q16,19.414 15.707,19.707 Q15.414,20 15,20 Q14.586,20 14.293,19.707 Q14,19.414 14,19 L14,15 Q14,14.586 14.293,14.293 Q14.586,14 15,14 L19,14 Q19.414,14 19.707,14.293 Q20,14.586 20,15 Q20,15.414 19.707,15.707 Q19.414,16 19,16 Z"/>
        <path   d="M15.707,14.293 L21.707,20.293 Q22,20.586 22,21 Q22,21.414 21.707,21.707 Q21.414,22 21,22 Q20.586,22 20.293,21.707 L14.293,15.707 Q14,15.414 14,15 Q14,14.586 14.293,14.293 Q14.586,14 15,14 Q15.414,14 15.707,14.293 Z"/>
    </g>
</svg>
