<?xml version="1.0" encoding="UTF-8"?>
<!-- Icon from Tabler Icons (outline), MIT License. https://github.com/tabler/tabler-icons
     Strokes flattened to fills with picosvg for GTK symbolic recoloring. -->
<svg height="16px" width="16px" viewBox="0 0 24 24" xmlns="http://www.w3.org/2000/svg">
    <g fill="#2e3436">
        <path d="M2,10 Q2,6.686 4.343,4.343 Q6.686,2 10,2 Q13.314,2 15.657,4.343 Q18,6.686 18,10 Q18,13.314 15.657,15.657 Q13.314,18 10,18 Q6.686,18 4.343,15.657 Q2,13.314 2,10 Z M4,10 Q4,12.485 5.757,14.243 Q7.515,16 10,16 Q12.485,16 14.243,14.243 Q16,12.485 16,10 Q16,7.515 14.243,5.757 Q12.485,4 10,4 Q7.515,4 5.757,5.757 Q4,7.515 4,10 Z"/>
        <path d="M20.293,21.707 L14.293,15.707 Q14,15.414 14,15 Q14,14.586 14.293,14.293 Q14.586,14 15,14 Q15.414,14 15.707,14.293 L21.707,20.293 Q22,20.586 22,21 Q22,21.414 21.707,21.707 Q21.414,22 21,22 Q20.586,22 20.293,21.707 Z"/>
    </g>
</svg>
