<?xml version="1.0" encoding="UTF-8"?>
<!-- Icon from Tabler Icons (outline), MIT License. https://github.com/tabler/tabler-icons
     Strokes flattened to fills with picosvg for GTK symbolic recoloring. -->
<svg height="16px" width="16px" viewBox="0 0 24 24" xmlns="http://www.w3.org/2000/svg">
    <g fill="#2e3436">
        <path d="M3,20 L3,16 Q3,15.586 3.293,15.293 L13.793,4.793 Q16.5,2.086 19.207,4.793 Q20.328,5.914 20.328,7.5 Q20.328,9.086 19.207,10.207 L8.707,20.707 Q8.414,21 8,21 L4,21 Q3.586,21 3.293,20.707 Q3,20.414 3,20 Z M5,19 L7.586,19 L17.793,8.793 Q18.328,8.257 18.328,7.5 Q18.328,6.743 17.793,6.207 Q16.5,4.914 15.207,6.207 L5,16.414 L5,19 Z"/>
        <path d="M14.207,5.793 L18.207,9.793 Q18.5,10.086 18.5,10.5 Q18.5,10.914 18.207,11.207 Q17.914,11.5 17.5,11.5 Q17.086,11.5 16.793,11.207 L12.793,7.207 Q12.5,6.914 12.5,6.5 Q12.5,6.086 12.793,5.793 Q13.086,5.5 13.5,5.5 Q13.914,5.5 14.207,5.793 Z"/>
    </g>
</svg>
