<?xml version="1.0" encoding="UTF-8"?>
<!-- Icon from Tabler Icons (outline), MIT License. https://github.com/tabler/tabler-icons
     Strokes flattened to fills with picosvg for GTK symbolic recoloring. -->
<svg height="16px" width="16px" viewBox="0 0 24 24" xmlns="http://www.w3.org/2000/svg">
    <g fill="#2e3436">
        <path d="M19,17 Q21.5,17 21.5,14.5 Q21.5,12 19,12 L18,12 Q17.586,12 17.293,11.707 Q17,11.414 17,11 Q17,10.889 17.024,10.781 Q17.385,9.176 16.37,7.801 Q15.32,6.377 13.432,6.034 Q11.523,5.687 9.909,6.651 Q8.342,7.588 7.976,9.219 Q7.896,9.572 7.609,9.793 Q7.322,10.014 6.96,9.999 Q3.988,9.88 3.304,12.615 Q2.628,15.319 5.3,16.483 Q5.679,16.649 5.831,17.034 Q5.982,17.42 5.817,17.8 Q5.651,18.179 5.266,18.331 Q4.88,18.482 4.5,18.317 Q0.277,16.476 1.364,12.13 Q2.346,8.199 6.252,8.004 Q6.955,6.087 8.884,4.934 Q11.142,3.585 13.79,4.066 Q16.459,4.551 17.98,6.613 Q19.149,8.199 19.123,10.001 Q20.908,10.044 22.182,11.318 Q23.5,12.636 23.5,14.5 Q23.5,16.364 22.182,17.682 Q20.864,19 19,19 Q18.586,19 18.293,18.707 Q18,18.414 18,18 Q18,17.586 18.293,17.293 Q18.586,17 19,17 Z"/>
        <path d="M13,13 L13,22 Q13,22.414 12.707,22.707 Q12.414,23 12,23 Q11.586,23 11.293,22.707 Q11,22.414 11,22 L11,13 Q11,12.586 11.293,12.293 Q11.586,12 12,12 Q12.414,12 12.707,12.293 Q13,12.586 13,13 Z"/>
        <path d="M9.707,18.293 L12,20.586 L14.293,18.293 Q14.586,18 15,18 Q15.414,18 15.707,18.293 Q16,18.586 16,19 Q16,19.414 15.707,19.707 L12.707,22.707 Q12.414,23 12,23 Q11.586,23 11.293,22.707 L8.293,19.707 Q8,19.414 8,19 Q8,18.586 8.293,18.293 Q8.586,18 9,18 Q9.414,18 9.707,18.293 Z"/>
    </g>
</svg>
