<?xml version="1.0" encoding="UTF-8"?>
<!-- Icon from Tabler Icons (outline), MIT License. https://github.com/tabler/tabler-icons
     Strokes flattened to fills with picosvg for GTK symbolic recoloring. -->
<svg height="16px" width="16px" viewBox="0 0 24 24" xmlns="http://www.w3.org/2000/svg">
    <g fill="#2e3436">
        <path d="M4.207,4.793 L5,5.586 L6.793,3.793 Q7.086,3.5 7.5,3.5 Q7.914,3.5 8.207,3.793 Q8.5,4.086 8.5,4.5 Q8.5,4.914 8.207,5.207 L5.707,7.707 Q5.414,8 5,8 Q4.586,8 4.293,7.707 L2.793,6.207 Q2.5,5.914 2.5,5.5 Q2.5,5.086 2.793,4.793 Q3.086,4.5 3.5,4.5 Q3.914,4.5 4.207,4.793 Z"/>
        <path d="M4.207,10.793 L5,11.586 L6.793,9.793 Q7.086,9.5 7.5,9.5 Q7.914,9.5 8.207,9.793 Q8.5,10.086 8.5,10.5 Q8.5,10.914 8.207,11.207 L5.707,13.707 Q5.414,14 5,14 Q4.586,14 4.293,13.707 L2.793,12.207 Q2.5,11.914 2.5,11.5 Q2.5,11.086 2.793,10.793 Q3.086,10.5 3.5,10.5 Q3.914,10.5 4.207,10.793 Z"/>
        <path d="M4.207,16.793 L5,17.586 L6.793,15.793 Q7.086,15.5 7.5,15.5 Q7.914,15.5 8.207,15.793 Q8.5,16.086 8.5,16.5 Q8.5,16.914 8.207,17.207 L5.707,19.707 Q5.414,20 5,20 Q4.586,20 4.293,19.707 L2.793,18.207 Q2.5,17.914 2.5,17.5 Q2.5,17.086 2.793,16.793 Q3.086,16.5 3.5,16.5 Q3.914,16.5 4.207,16.793 Z"/>
        <path d="M11,5 L20,5 Q20.414,5 20.707,5.293 Q21,5.586 21,6 Q21,6.414 20.707,6.707 Q20.414,7 20,7 L11,7 Q10.586,7 10.293,6.707 Q10,6.414 10,6 Q10,5.586 10.293,5.293 Q10.586,5 11,5 Z"/>
        <path d="M11,11 L20,11 Q20.414,11 20.707,11.293 Q21,11.586 21,12 Q21,12.414 20.707,12.707 Q20.414,13 20,13 L11,13 Q10.586,13 10.293,12.707 Q10,12.414 10,12 Q10,11.586 10.293,11.293 Q10.586,11 11,11 Z"/>
        <path d="M11,17 L20,17 Q20.414,17 20.707,17.293 Q21,17.586 21,18 Q21,18.414 20.707,18.707 Q20.414,19 20,19 L11,19 Q10.586,19 10.293,18.707 Q10,18.414 10,18 Q10,17.586 10.293,17.293 Q10.586,17 11,17 Z"/>
    </g>
</svg>
