<?xml version="1.0" encoding="UTF-8"?>
<!-- Icon from Tabler Icons (outline), MIT License. https://github.com/tabler/tabler-icons
     Strokes flattened to fills with picosvg for GTK symbolic recoloring. -->
<svg height="16px" width="16px" viewBox="0 0 24 24" xmlns="http://www.w3.org/2000/svg">
    <g fill="#2e3436">
        <path d="M2.293,7.293 L6.293,3.293 Q6.586,3 7,3 Q7.414,3 7.707,3.293 L11.707,7.293 Q12,7.586 12,8 Q12,8.414 11.707,8.707 Q11.414,9 11,9 Q10.586,9 10.293,8.707 L7,5.414 L3.707,8.707 Q3.414,9 3,9 Q2.586,9 2.293,8.707 Q2,8.414 2,8 Q2,7.586 2.293,7.293 Z"/>
        <path d="M8,4 L8,13 Q8,13.414 7.707,13.707 Q7.414,14 7,14 Q6.586,14 6.293,13.707 Q6,13.414 6,13 L6,4 Q6,3.586 6.293,3.293 Q6.586,3 7,3 Q7.414,3 7.707,3.293 Q8,3.586 8,4 Z"/>
        <path d="M13.707,15.293 L17,18.586 L20.293,15.293 Q20.586,15 21,15 Q21.414,15 21.707,15.293 Q22,15.586 22,16 Q22,16.414 21.707,16.707 L17.707,20.707 Q17.414,21 17,21 Q16.586,21 16.293,20.707 L12.293,16.707 Q12,16.414 12,16 Q12,15.586 12.293,15.293 Q12.586,15 13,15 Q13.414,15 13.707,15.293 Z"/>
        <path d="M18,10 L18,20 Q18,20.414 17.707,20.707 Q17.414,21 17,21 Q16.586,21 16.293,20.707 Q16,20.414 16,20 L16,10 Q16,9.586 16.293,9.293 Q16.586,9 17,9 Q17.414,9 17.707,9.293 Q18,9.586 18,10 Z"/>
    </g>
</svg>
