<?xml version="1.0" encoding="UTF-8"?>
<!-- Icon from Tabler Icons (outline), MIT License. https://github.com/tabler/tabler-icons
     Strokes flattened to fills with picosvg for GTK symbolic recoloring. -->
<svg height="16px" width="16px" viewBox="0 0 24 24" xmlns="http://www.w3.org/2000/svg">
    <g fill="#2e3436">
        <path d="M12,20 L5,20 Q2,20 2,17 L2,6 Q2,3 5,3 L9,3 Q9.414,3 9.707,3.293 L12.414,6 L19,6 Q22,6 22,9 L22,12.5 Q22,12.914 21.707,13.207 Q21.414,13.5 21,13.5 Q20.586,13.5 20.293,13.207 Q20,12.914 20,12.5 L20,9 Q20,8 19,8 L12,8 Q11.586,8 11.293,7.707 L8.586,5 L5,5 Q4,5 4,6 L4,17 Q4,18 5,18 L12,18 Q12.414,18 12.707,18.293 Q13,18.586 13,19 Q13,19.414 12.707,19.707 Q12.414,20 12,20 Z"/>
        <path d="M20,16 L20,22 Q20,22.414 19.707,22.707 Q19.414,23 19,23 Q18.586,23 18.293,22.707 Q18,22.414 18,22 L18,16 Q18,15.586 18.293,15.293 Q18.586,15 19,15 Q19.414,15 19.707,15.293 Q20,15.586 20,16 Z"/>
        <path d="M22.707,19.707 L19.707,22.707 Q19.414,23 19,23 Q18.586,23 18.293,22.707 L15.293,19.707 Q15,19.414 15,19 Q15,18.586 15.293,18.293 Q15.586,18 16,18 Q16.414,18 16.707,18.293 L19,20.586 L21.293,18.293 Q21.586,18 22,18 Q22.414,18 22.707,18.293 Q23,18.586 23,19 Q23,19.414 22.707,19.707 Z"/>
    </g>
</svg>
