<?xml version="1.0" encoding="UTF-8"?>
<!-- Icon from Tabler Icons (outline), MIT License. https://github.com/tabler/tabler-icons
     Strokes flattened to fills with picosvg for GTK symbolic recoloring. -->
<svg height="16px" width="16px" viewBox="0 0 24 24" xmlns="http://www.w3.org/2000/svg">
    <g fill="#2e3436">
        <path d="M3,6 Q3,3 6,3 L18,3 Q21,3 21,6 L21,18 Q21,21 18,21 L6,21 Q3,21 3,18 Z M5,6 L5,18 Q5,19 6,19 L18,19 Q19,19 19,18 L19,6 Q19,5 18,5 L6,5 Q5,5 5,6 Z"/>
        <path d="M9,4 L9,20 Q9,20.414 8.707,20.707 Q8.414,21 8,21 Q7.586,21 7.293,20.707 Q7,20.414 7,20 L7,4 Q7,3.586 7.293,3.293 Q7.586,3 8,3 Q8.414,3 8.707,3.293 Q9,3.586 9,4 Z"/>
        <path d="M17,4 L17,20 Q17,20.414 16.707,20.707 Q16.414,21 16,21 Q15.586,21 15.293,20.707 Q15,20.414 15,20 L15,4 Q15,3.586 15.293,3.293 Q15.586,3 16,3 Q16.414,3 16.707,3.293 Q17,3.586 17,4 Z"/>
        <path d="M4,7 L8,7 Q8.414,7 8.707,7.293 Q9,7.586 9,8 Q9,8.414 8.707,8.707 Q8.414,9 8,9 L4,9 Q3.586,9 3.293,8.707 Q3,8.414 3,8 Q3,7.586 3.293,7.293 Q3.586,7 4,7 Z"/>
        <path d="M4,15 L8,15 Q8.414,15 8.707,15.293 Q9,15.586 9,16 Q9,16.414 8.707,16.707 Q8.414,17 8,17 L4,17 Q3.586,17 3.293,16.707 Q3,16.414 3,16 Q3,15.586 3.293,15.293 Q3.586,15 4,15 Z"/>
        <path d="M4,11 L20,11 Q20.414,11 20.707,11.293 Q21,11.586 21,12 Q21,12.414 20.707,12.707 Q20.414,13 20,13 L4,13 Q3.586,13 3.293,12.707 Q3,12.414 3,12 Q3,11.586 3.293,11.293 Q3.586,11 4,11 Z"/>
        <path d="M16,7 L20,7 Q20.414,7 20.707,7.293 Q21,7.586 21,8 Q21,8.414 20.707,8.707 Q20.414,9 20,9 L16,9 Q15.586,9 15.293,8.707 Q15,8.414 15,8 Q15,7.586 15.293,7.293 Q15.586,7 16,7 Z"/>
        <path d="M16,15 L20,15 Q20.414,15 20.707,15.293 Q21,15.586 21,16 Q21,16.414 20.707,16.707 Q20.414,17 20,17 L16,17 Q15.586,17 15.293,16.707 Q15,16.414 15,16 Q15,15.586 15.293,15.293 Q15.586,15 16,15 Z"/>
    </g>
</svg>
