<?xml version="1.0" encoding="UTF-8"?>
<!-- Icon from Tabler Icons (outline), MIT License. https://github.com/tabler/tabler-icons
     Strokes flattened to fills with picosvg for GTK symbolic recoloring. -->
<svg height="16px" width="16px" viewBox="0 0 24 24" xmlns="http://www.w3.org/2000/svg">
    <g fill="#2e3436">
        <path d="M4,5 L20,5 Q20.414,5 20.707,5.293 Q21,5.586 21,6 Q21,6.414 20.707,6.707 Q20.414,7 20,7 L4,7 Q3.586,7 3.293,6.707 Q3,6.414 3,6 Q3,5.586 3.293,5.293 Q3.586,5 4,5 Z"/>
        <path d="M4,11 L20,11 Q20.414,11 20.707,11.293 Q21,11.586 21,12 Q21,12.414 20.707,12.707 Q20.414,13 20,13 L4,13 Q3.586,13 3.293,12.707 Q3,12.414 3,12 Q3,11.586 3.293,11.293 Q3.586,11 4,11 Z"/>
        <path d="M4,17 L20,17 Q20.414,17 20.707,17.293 Q21,17.586 21,18 Q21,18.414 20.707,18.707 Q20.414,19 20,19 L4,19 Q3.586,19 3.293,18.707 Q3,18.414 3,18 Q3,17.586 3.293,17.293 Q3.586,17 4,17 Z"/>
    </g>
</svg>
