<?xml version="1.0" encoding="UTF-8"?>
<!-- Icon from Tabler Icons (outline), MIT License. https://github.com/tabler/tabler-icons
     Strokes flattened to fills with picosvg for GTK symbolic recoloring. -->
<svg height="16px" width="16px" viewBox="0 0 24 24" xmlns="http://www.w3.org/2000/svg">
    <g fill="#2e3436">
        <path d="M15,3 L15,7 L19,7 Q19.414,7 19.707,7.293 Q20,7.586 20,8 Q20,8.414 19.707,8.707 Q19.414,9 19,9 L15,9 Q13,9 13,7 L13,3 Q13,2.586 13.293,2.293 Q13.586,2 14,2 Q14.414,2 14.707,2.293 Q15,2.586 15,3 Z"/>
        <path d="M11.5,22 L7,22 Q4,22 4,19 L4,5 Q4,2 7,2 L14,2 Q14.414,2 14.707,2.293 L19.707,7.293 Q20,7.586 20,8 L20,13 Q20,13.414 19.707,13.707 Q19.414,14 19,14 Q18.586,14 18.293,13.707 Q18,13.414 18,13 L18,8.414 L13.586,4 L7,4 Q6,4 6,5 L6,19 Q6,20 7,20 L11.5,20 Q11.914,20 12.207,20.293 Q12.5,20.586 12.5,21 Q12.5,21.414 12.207,21.707 Q11.914,22 11.5,22 Z M14,18 L18.586,18 L17.293,16.707 Q17,16.414 17,16 Q17,15.586 17.293,15.293 Q17.586,15 18,15 Q18.414,15 18.707,15.293 L21.707,18.293 Q22,18.586 22,19 Q22,19.414 21.707,19.707 L18.707,22.707 Q18.414,23 18,23 Q17.586,23 17.293,22.707 Q17,22.414 17,22 Q17,21.586 17.293,21.293 L18.586,20 L14,20 Q13.586,20 13.293,19.707 Q13,19.414 13,19 Q13,18.586 13.293,18.293 Q13.586,18 14,18 Z"/>
    </g>
</svg>
