<?xml version="1.0" encoding="UTF-8"?>
<!-- Icon from Tabler Icons (outline), MIT License. https://github.com/tabler/tabler-icons
     Strokes flattened to fills with picosvg for GTK symbolic recoloring. -->
<svg height="16px" width="16px" viewBox="0 0 24 24" xmlns="http://www.w3.org/2000/svg">
    <g fill="#2e3436">
        <path d="M4,13 Q4,9.686 6.343,7.343 Q8.686,5 12,5 Q15.314,5 17.657,7.343 Q20,9.686 20,13 Q20,16.314 17.657,18.657 Q15.314,21 12,21 Q8.686,21 6.343,18.657 Q4,16.314 4,13 Z M6,13 Q6,15.485 7.757,17.243 Q9.515,19 12,19 Q14.485,19 16.243,17.243 Q18,15.485 18,13 Q18,10.515 16.243,8.757 Q14.485,7 12,7 Q9.515,7 7.757,8.757 Q6,10.515 6,13 Z"/>
        <path d="M13,10 L13,12 L14,12 Q14.414,12 14.707,12.293 Q15,12.586 15,13 Q15,13.414 14.707,13.707 Q14.414,14 14,14 L12,14 Q11.586,14 11.293,13.707 Q11,13.414 11,13 L11,10 Q11,9.586 11.293,9.293 Q11.586,9 12,9 Q12.414,9 12.707,9.293 Q13,9.586 13,10 Z"/>
        <path d="M7.588,4.809 L4.838,6.809 Q4.503,7.052 4.094,6.988 Q3.685,6.923 3.441,6.588 Q3.198,6.253 3.262,5.844 Q3.327,5.435 3.662,5.191 L6.412,3.191 Q6.747,2.948 7.156,3.012 Q7.565,3.077 7.809,3.412 Q8.052,3.747 7.988,4.156 Q7.923,4.565 7.588,4.809 Z"/>
        <path d="M17.588,3.191 L20.338,5.191 Q20.673,5.435 20.738,5.844 Q20.802,6.253 20.559,6.588 Q20.315,6.923 19.906,6.988 Q19.497,7.052 19.162,6.809 L16.412,4.809 Q16.077,4.565 16.012,4.156 Q15.948,3.747 16.191,3.412 Q16.435,3.077 16.844,3.012 Q17.253,2.948 17.588,3.191 Z"/>
    </g>
</svg>
