<?xml version="1.0" encoding="UTF-8"?>
<!-- Icon from Tabler Icons (outline), MIT License. https://github.com/tabler/tabler-icons
     Strokes flattened to fills with picosvg for GTK symbolic recoloring. -->
<svg height="16px" width="16px" viewBox="0 0 24 24" xmlns="http://www.w3.org/2000/svg">
    <g fill="#2e3436">
        <path d="M9,4 L7,4 A2 2 0 0 0 5,6 L5,18 A2 2 0 0 0 7,20 L9,20 A2 2 0 0 0 11,18 L11,6 A2 2 0 0 0 9,4 Z"/>
        <path d="M17,4 L15,4 A2 2 0 0 0 13,6 L13,18 A2 2 0 0 0 15,20 L17,20 A2 2 0 0 0 19,18 L19,6 A2 2 0 0 0 17,4 Z"/>
    </g>
</svg>
