<?xml version="1.0" encoding="UTF-8"?>
<!-- Icon from Tabler Icons (outline), MIT License. https://github.com/tabler/tabler-icons
     Strokes flattened to fills with picosvg for GTK symbolic recoloring. -->
<svg height="16px" width="16px" viewBox="0 0 24 24" xmlns="http://www.w3.org/2000/svg">
    <g fill="#2e3436">
        <path   d="M16,3 L20,3 Q20.414,3 20.707,3.293 Q21,3.586 21,4 L21,8 Q21,8.414 20.707,8.707 Q20.414,9 20,9 Q19.586,9 19.293,8.707 Q19,8.414 19,8 L19,5 L16,5 Q15.586,5 15.293,4.707 Q15,4.414 15,4 Q15,3.586 15.293,3.293 Q15.586,3 16,3 Z"/>
        <path   d="M13.293,9.293 L19.293,3.293 Q19.586,3 20,3 Q20.414,3 20.707,3.293 Q21,3.586 21,4 Q21,4.414 20.707,4.707 L14.707,10.707 Q14.414,11 14,11 Q13.586,11 13.293,10.707 Q13,10.414 13,10 Q13,9.586 13.293,9.293 Z"/>
        <path   d="M8,21 L4,21 Q3.586,21 3.293,20.707 Q3,20.414 3,20 L3,16 Q3,15.586 3.293,15.293 Q3.586,15 4,15 Q4.414,15 4.707,15.293 Q5,15.586 5,16 L5,19 L8,19 Q8.414,19 8.707,19.293 Q9,19.586 9,20 Q9,20.414 8.707,20.707 Q8.414,21 8,21 Z"/>
        <path   d="M3.293,19.293 L9.293,13.293 Q9.586,13 10,13 Q10.414,13 10.707,13.293 Q11,13.586 11,14 Q11,14.414 10.707,14.707 L4.707,20.707 Q4.414,21 4,21 Q3.586,21 3.293,20.707 Q3,20.414 3,20 Q3,19.586 3.293,19.293 Z"/>
        <path   d="M16,19 L19,19 L19,16 Q19,15.586 19.293,15.293 Q19.586,15 20,15 Q20.414,15 20.707,15.293 Q21,15.586 21,16 L21,20 Q21,20.414 20.707,20.707 Q20.414,21 20,21 L16,21 Q15.586,21 15.293,20.707 Q15,20.414 15,20 Q15,19.586 15.293,19.293 Q15.586,19 16,19 Z"/>
        <path   d="M14.707,13.293 L20.707,19.293 Q21,19.586 21,20 Q21,20.414 20.707,20.707 Q20.414,21 20,21 Q19.586,21 19.293,20.707 L13.293,14.707 Q13,14.414 13,14 Q13,13.586 13.293,13.293 Q13.586,13 14,13 Q14.414,13 14.707,13.293 Z"/>
        <path   d="M8,5 L5,5 L5,8 Q5,8.414 4.707,8.707 Q4.414,9 4,9 Q3.586,9 3.293,8.707 Q3,8.414 3,8 L3,4 Q3,3.586 3.293,3.293 Q3.586,3 4,3 L8,3 Q8.414,3 8.707,3.293 Q9,3.586 9,4 Q9,4.414 8.707,4.707 Q8.414,5 8,5 Z"/>
        <path   d="M4.707,3.293 L10.707,9.293 Q11,9.586 11,10 Q11,10.414 10.707,10.707 Q10.414,11 10,11 Q9.586,11 9.293,10.707 L3.293,4.707 Q3,4.414 3,4 Q3,3.586 3.293,3.293 Q3.586,3 4,3 Q4.414,3 4.707,3.293 Z"/>
    </g>
</svg>
