<?xml version="1.0" encoding="UTF-8"?>
<!-- Icon from Tabler Icons (outline), MIT License. https://github.com/tabler/tabler-icons
     Strokes flattened to fills with picosvg for GTK symbolic recoloring. -->
<svg height="16px" width="16px" viewBox="0 0 24 24" xmlns="http://www.w3.org/2000/svg">
    <g fill="#2e3436">
        <path   d="M3,8 L3,6 Q3,3 6,3 L8,3 Q8.414,3 8.707,3.293 Q9,3.586 9,4 Q9,4.414 8.707,4.707 Q8.414,5 8,5 L6,5 Q5,5 5,6 L5,8 Q5,8.414 4.707,8.707 Q4.414,9 4,9 Q3.586,9 3.293,8.707 Q3,8.414 3,8 Z"/>
        <path   d="M5,16 L5,18 Q5,19 6,19 L8,19 Q8.414,19 8.707,19.293 Q9,19.586 9,20 Q9,20.414 8.707,20.707 Q8.414,21 8,21 L6,21 Q3,21 3,18 L3,16 Q3,15.586 3.293,15.293 Q3.586,15 4,15 Q4.414,15 4.707,15.293 Q5,15.586 5,16 Z"/>
        <path   d="M16,3 L18,3 Q21,3 21,6 L21,8 Q21,8.414 20.707,8.707 Q20.414,9 20,9 Q19.586,9 19.293,8.707 Q19,8.414 19,8 L19,6 Q19,5 18,5 L16,5 Q15.586,5 15.293,4.707 Q15,4.414 15,4 Q15,3.586 15.293,3.293 Q15.586,3 16,3 Z"/>
        <path   d="M16,19 L18,19 Q19,19 19,18 L19,16 Q19,15.586 19.293,15.293 Q19.586,15 20,15 Q20.414,15 20.707,15.293 Q21,15.586 21,16 L21,18 Q21,21 18,21 L16,21 Q15.586,21 15.293,20.707 Q15,20.414 15,20 Q15,19.586 15.293,19.293 Q15.586,19 16,19 Z"/>
    </g>
</svg>
