<?xml version="1.0" encoding="UTF-8"?>
<!-- Icon from Tabler Icons (outline), MIT License. https://github.com/tabler/tabler-icons
     Strokes flattened to fills with picosvg for GTK symbolic recoloring. -->
<svg height="16px" width="16px" viewBox="0 0 24 24" xmlns="http://www.w3.org/2000/svg">
    <g fill="#2e3436">
        <path d="M4.921,19.999 Q2,19.96 2,17 L2,6 Q2,3 5,3 L9,3 Q9.414,3 9.707,3.293 L12.414,6 L19,6 Q22,6 22,9 L22,10.258 Q22.289,10.427 22.526,10.707 Q23.124,11.414 22.972,12.328 Q22.97,12.34 22.968,12.352 L21.972,17.563 Q21.507,19.999 19.026,20 L5.078,20 Q5,20.006 4.921,19.999 Z M6.443,18 L19.026,18 Q19.853,18 20.008,17.187 L20.999,12 L8.693,12 L8.693,12 L6.443,18 Z M20,10 L20,9 Q20,8 19,8 L12,8 Q11.586,8 11.293,7.707 L8.586,5 L5,5 Q4,5 4,6 L4,17 Q4,17.605 4.366,17.844 L6.821,11.298 Q7.307,10.001 8.693,10 L20,10 Z"/>
    </g>
</svg>
