<?xml version="1.0" encoding="UTF-8"?>
<!-- Icon from Tabler Icons (outline), MIT License. https://github.com/tabler/tabler-icons
     Strokes flattened to fills with picosvg for GTK symbolic recoloring. -->
<svg height="16px" width="16px" viewBox="0 0 24 24" xmlns="http://www.w3.org/2000/svg">
    <g fill="#2e3436">
        <path d="M19.01,11.138 Q18.263,5.767 12.886,5.073 Q8.322,4.484 6.13,8 L8,8 Q8.414,8 8.707,8.293 Q9,8.586 9,9 Q9,9.414 8.707,9.707 Q8.414,10 8,10 L4.576,10 Q4.5,10.006 4.424,10 L4,10 Q3.586,10 3.293,9.707 Q3,9.414 3,9 L3,5 Q3,4.586 3.293,4.293 Q3.586,4 4,4 Q4.414,4 4.707,4.293 Q5,4.586 5,5 L5,6.089 Q7.807,2.401 13.142,3.09 Q20.034,3.979 20.99,10.862 Q21.047,11.273 20.798,11.603 Q20.548,11.933 20.138,11.99 Q19.727,12.047 19.397,11.798 Q19.067,11.548 19.01,11.138 Z"/>
        <path d="M4.99,12.862 Q5.737,18.233 11.114,18.927 Q15.678,19.516 17.87,16 L16,16 Q15.586,16 15.293,15.707 Q15,15.414 15,15 Q15,14.586 15.293,14.293 Q15.586,14 16,14 L19.424,14 Q19.5,13.994 19.576,14 L20,14 Q20.414,14 20.707,14.293 Q21,14.586 21,15 L21,19 Q21,19.414 20.707,19.707 Q20.414,20 20,20 Q19.586,20 19.293,19.707 Q19,19.414 19,19 L19,17.911 Q16.193,21.599 10.858,20.91 Q3.966,20.021 3.01,13.138 Q2.953,12.727 3.202,12.397 Q3.452,12.067 3.862,12.01 Q4.273,11.953 4.603,12.202 Q4.933,12.452 4.99,12.862 Z"/>
    </g>
</svg>
