<?xml version="1.0" encoding="UTF-8"?>
<!-- Icon from Tabler Icons (outline), MIT License. https://github.com/tabler/tabler-icons
     Strokes flattened to fills with picosvg for GTK symbolic recoloring. -->
<svg height="16px" width="16px" viewBox="0 0 24 24" xmlns="http://www.w3.org/2000/svg">
    <g fill="#2e3436">
        <path d="M13,8 L13,11.586 L14.707,13.293 Q15,13.586 15,14 Q15,14.414 14.707,14.707 Q14.414,15 14,15 Q13.586,15 13.293,14.707 L11.293,12.707 Q11,12.414 11,12 L11,8 Q11,7.586 11.293,7.293 Q11.586,7 12,7 Q12.414,7 12.707,7.293 Q13,7.586 13,8 Z"/>
        <path d="M2.055,10.899 Q2.442,7.103 5.258,4.53 Q8.075,1.956 11.889,1.913 Q15.704,1.869 18.579,4.378 Q21.453,6.886 21.926,10.672 Q22.4,14.457 20.231,17.596 Q18.063,20.735 14.354,21.632 Q10.646,22.529 7.283,20.728 Q5.315,19.674 4.05,18.009 L4.05,20 Q4.05,20.414 3.757,20.707 Q3.464,21 3.05,21 Q2.636,21 2.343,20.707 Q2.05,20.414 2.05,20 L2.05,15 Q2.05,14.586 2.343,14.293 Q2.636,14 3.05,14 L3.478,14 Q3.553,13.994 3.629,14 L8.05,14 Q8.464,14 8.757,14.293 Q9.05,14.586 9.05,15 Q9.05,15.414 8.757,15.707 Q8.464,16 8.05,16 L5.115,16 Q6.209,17.884 8.227,18.965 Q10.918,20.405 13.884,19.688 Q16.851,18.97 18.586,16.459 Q20.32,13.948 19.942,10.92 Q19.563,7.891 17.264,5.884 Q14.964,3.878 11.912,3.913 Q8.86,3.947 6.607,6.006 Q4.354,8.065 4.045,11.101 Q4.003,11.513 3.682,11.775 Q3.361,12.037 2.949,11.995 Q2.537,11.953 2.275,11.632 Q2.013,11.311 2.055,10.899 Z"/>
    </g>
</svg>
