<?xml version="1.0" encoding="UTF-8"?>
<!-- Icon from Tabler Icons (outline), MIT License. https://github.com/tabler/tabler-icons
     Strokes flattened to fills with picosvg for GTK symbolic recoloring. -->
<svg height="16px" width="16px" viewBox="0 0 24 24" xmlns="http://www.w3.org/2000/svg">
    <g fill="#2e3436">
        <path   d="M20.204,13.283 L12.704,20.711 Q12.411,21 12,21 Q11.589,21 11.296,20.711 L3.796,13.283 Q1.183,10.716 2.276,7.216 Q3.37,3.716 6.983,3.092 Q9.975,2.576 12,4.496 Q14.025,2.576 17.017,3.092 Q20.63,3.716 21.724,7.216 Q22.816,10.714 20.204,13.283 Z M18.795,11.863 L18.796,11.861 Q18.798,11.86 18.799,11.859 Q18.801,11.857 18.803,11.855 Q20.542,10.143 19.814,7.812 Q19.086,5.479 16.677,5.063 Q14.268,4.647 12.799,6.601 Q12.714,6.714 12.601,6.799 Q12.27,7.048 11.86,6.99 Q11.45,6.932 11.201,6.601 Q9.732,4.647 7.323,5.063 Q4.914,5.479 4.186,7.812 Q3.457,10.146 5.204,11.861 L12,18.593 L18.795,11.863 Z"/>
    </g>
</svg>
