<?xml version="1.0" encoding="UTF-8"?>
<!-- Icon from Tabler Icons (outline), MIT License. https://github.com/tabler/tabler-icons
     Strokes flattened to fills with picosvg for GTK symbolic recoloring. -->
<svg height="16px" width="16px" viewBox="0 0 24 24" xmlns="http://www.w3.org/2000/svg">
    <g fill="#2e3436">
        <path d="M5,17 L5,19 Q5,20 6,20 L18,20 Q19,20 19,19 L19,17 Q19,16.586 19.293,16.293 Q19.586,16 20,16 Q20.414,16 20.707,16.293 Q21,16.586 21,17 L21,19 Q21,22 18,22 L6,22 Q3,22 3,19 L3,17 Q3,16.586 3.293,16.293 Q3.586,16 4,16 Q4.414,16 4.707,16.293 Q5,16.586 5,17 Z"/>
        <path d="M7.707,10.293 L12,14.586 L16.293,10.293 Q16.586,10 17,10 Q17.414,10 17.707,10.293 Q18,10.586 18,11 Q18,11.414 17.707,11.707 L12.707,16.707 Q12.414,17 12,17 Q11.586,17 11.293,16.707 L6.293,11.707 Q6,11.414 6,11 Q6,10.586 6.293,10.293 Q6.586,10 7,10 Q7.414,10 7.707,10.293 Z"/>
        <path d="M13,4 L13,16 Q13,16.414 12.707,16.707 Q12.414,17 12,17 Q11.586,17 11.293,16.707 Q11,16.414 11,16 L11,4 Q11,3.586 11.293,3.293 Q11.586,3 12,3 Q12.414,3 12.707,3.293 Q13,3.586 13,4 Z"/>
    </g>
</svg>
