<?xml version="1.0" encoding="UTF-8"?>
<!-- Icon from Tabler Icons (outline), MIT License. https://github.com/tabler/tabler-icons
     Strokes flattened to fills with picosvg for GTK symbolic recoloring. -->
<svg height="16px" width="16px" viewBox="0 0 24 24" xmlns="http://www.w3.org/2000/svg">
    <g fill="#2e3436">
        <path d="M2,17 Q2,13 6,13 Q10,13 10,17 Q10,21 6,21 Q2,21 2,17 Z M4,17 Q4,19 6,19 Q8,19 8,17 Q8,15 6,15 Q4,15 4,17 Z"/>
        <path d="M12,17 Q12,13 16,13 Q20,13 20,17 Q20,21 16,21 Q12,21 12,17 Z M14,17 Q14,19 16,19 Q18,19 18,17 Q18,15 16,15 Q14,15 14,17 Z"/>
        <path d="M8,17 L8,4 Q8,3.586 8.293,3.293 Q8.586,3 9,3 L19,3 Q19.414,3 19.707,3.293 Q20,3.586 20,4 L20,17 Q20,17.414 19.707,17.707 Q19.414,18 19,18 Q18.586,18 18.293,17.707 Q18,17.414 18,17 L18,5 L10,5 L10,17 Q10,17.414 9.707,17.707 Q9.414,18 9,18 Q8.586,18 8.293,17.707 Q8,17.414 8,17 Z"/>
        <path d="M9,7 L19,7 Q19.414,7 19.707,7.293 Q20,7.586 20,8 Q20,8.414 19.707,8.707 Q19.414,9 19,9 L9,9 Q8.586,9 8.293,8.707 Q8,8.414 8,8 Q8,7.586 8.293,7.293 Q8.586,7 9,7 Z"/>
    </g>
</svg>
