<?xml version="1.0" encoding="UTF-8"?>
<!-- Icon from Tabler Icons (outline), MIT License. https://github.com/tabler/tabler-icons
     Strokes flattened to fills with picosvg for GTK symbolic recoloring. -->
<svg height="16px" width="16px" viewBox="0 0 24 24" xmlns="http://www.w3.org/2000/svg">
    <g fill="#2e3436">
        <path d="M15,3 L15,7 L19,7 Q19.414,7 19.707,7.293 Q20,7.586 20,8 Q20,8.414 19.707,8.707 Q19.414,9 19,9 L15,9 Q13,9 13,7 L13,3 Q13,2.586 13.293,2.293 Q13.586,2 14,2 Q14.414,2 14.707,2.293 Q15,2.586 15,3 Z"/>
        <path d="M4,13 L4,5 Q4,2 7,2 L14,2 Q14.414,2 14.707,2.293 L19.707,7.293 Q20,7.586 20,8 L20,19 Q20,22 17,22 L11.5,22 Q11.086,22 10.793,21.707 Q10.5,21.414 10.5,21 Q10.5,20.586 10.793,20.293 Q11.086,20 11.5,20 L17,20 Q18,20 18,19 L18,8.414 L13.586,4 L7,4 Q6,4 6,5 L6,13 Q6,13.414 5.707,13.707 Q5.414,14 5,14 Q4.586,14 4.293,13.707 Q4,13.414 4,13 Z M2,18 L6.586,18 L5.293,16.707 Q5,16.414 5,16 Q5,15.586 5.293,15.293 Q5.586,15 6,15 Q6.414,15 6.707,15.293 L9.707,18.293 Q10,18.586 10,19 Q10,19.362 9.776,19.632 Q9.744,19.67 9.707,19.707 L6.707,22.707 Q6.414,23 6,23 Q5.586,23 5.293,22.707 Q5,22.414 5,22 Q5,21.586 5.293,21.293 L6.586,20 L2,20 Q1.586,20 1.293,19.707 Q1,19.414 1,19 Q1,18.586 1.293,18.293 Q1.586,18 2,18 Z"/>
    </g>
</svg>
