<?xml version="1.0" encoding="UTF-8"?>
<!-- Icon from Tabler Icons (outline), MIT License. https://github.com/tabler/tabler-icons
     Strokes flattened to fills with picosvg for GTK symbolic recoloring. -->
<svg height="16px" width="16px" viewBox="0 0 24 24" xmlns="http://www.w3.org/2000/svg">
    <g fill="#2e3436">
        <path d="M2,12 Q2,7.858 4.929,4.929 Q7.858,2 12,2 Q16.142,2 19.071,4.929 Q22,7.858 22,12 Q22,16.142 19.071,19.071 Q16.142,22 12,22 Q7.858,22 4.929,19.071 Q2.001,16.143 2,12.002 L2,12 Z M4,12 Q4,15.314 6.343,17.657 Q8.686,20 12,20 Q15.314,20 17.657,17.657 Q20,15.314 20,12 Q20,8.686 17.657,6.343 Q15.314,4 12,4 Q8.686,4 6.343,6.343 Q4,8.686 4,11.999 Z"/>
        <path d="M12,8 L12.01,8 Q12.424,8 12.717,8.293 Q13.01,8.586 13.01,9 Q13.01,9.414 12.717,9.707 Q12.424,10 12.01,10 L12,10 Q11.586,10 11.293,9.707 Q11,9.414 11,9 Q11,8.586 11.293,8.293 Q11.586,8 12,8 Z"/>
        <path d="M11,11 L12,11 Q12.414,11 12.707,11.293 Q13,11.586 13,12 L13,15 Q13.414,15 13.707,15.293 Q14,15.586 14,16 Q14,16.414 13.707,16.707 Q13.414,17 13,17 L12,17 Q11.586,17 11.293,16.707 Q11,16.414 11,16 L11,13 Q10.586,13 10.293,12.707 Q10,12.414 10,12 Q10,11.586 10.293,11.293 Q10.586,11 11,11 Z"/>
    </g>
</svg>
