<?xml version="1.0" encoding="UTF-8"?>
<!-- Icon from Tabler Icons (outline), MIT License. https://github.com/tabler/tabler-icons
     Strokes flattened to fills with picosvg for GTK symbolic recoloring. -->
<svg height="16px" width="16px" viewBox="0 0 24 24" xmlns="http://www.w3.org/2000/svg">
    <g fill="#2e3436">
        <path d="M6,9.667 Q6,6 9.667,6 L18.333,6 Q22,6 22,9.667 L22,18.333 Q22,22 18.333,22 L9.667,22 Q6,22 6,18.333 Z M8,9.667 L8,18.333 Q8,20 9.667,20 L18.333,20 Q20,20 20,18.333 L20,9.667 Q20,8 18.333,8 L9.667,8 Q8,8 8,9.667 Z"/>
        <path d="M3.517,17.606 Q2.004,16.743 2,15.002 L2,5 Q2,2 5,2 L15,2 Q16.532,2 17.374,3.514 Q17.575,3.876 17.462,4.274 Q17.348,4.673 16.986,4.874 Q16.624,5.075 16.226,4.962 Q15.827,4.848 15.626,4.486 Q15.356,4 15,4 L5,4 Q4,4 4,5 L4,14.998 Q4.001,15.58 4.507,15.868 Q4.867,16.073 4.976,16.473 Q5.086,16.872 4.881,17.232 Q4.676,17.592 4.276,17.701 Q3.877,17.811 3.517,17.606 Z"/>
    </g>
</svg>
