<?xml version="1.0" encoding="UTF-8"?>
<!-- Icon from Tabler Icons (outline), MIT License. https://github.com/tabler/tabler-icons
     Strokes flattened to fills with picosvg for GTK symbolic recoloring. -->
<svg height="16px" width="16px" viewBox="0 0 24 24" xmlns="http://www.w3.org/2000/svg">
    <g fill="#2e3436">
        <path d="M15,7 L15.01,7 Q15.424,7 15.717,7.293 Q16.01,7.586 16.01,8 Q16.01,8.414 15.717,8.707 Q15.424,9 15.01,9 L15,9 Q14.586,9 14.293,8.707 Q14,8.414 14,8 Q14,7.586 14.293,7.293 Q14.586,7 15,7 Z"/>
        <path d="M2,6 Q2,2 6,2 L18,2 Q22,2 22,6 L22,18 Q22,22 18,22 L6,22 Q2,22 2,18 Z M4,6 L4,18 Q4,20 6,20 L18,20 Q20,20 20,18 L20,6 Q20,4 18,4 L6,4 Q4,4 4,6 Z"/>
        <path d="M2.293,15.293 L7.293,10.293 Q9.5,8.169 11.693,10.279 L16.707,15.293 Q17,15.586 17,16 Q17,16.414 16.707,16.707 Q16.414,17 16,17 Q15.586,17 15.293,16.707 L10.307,11.721 Q9.5,10.944 8.707,11.707 L3.707,16.707 Q3.414,17 3,17 Q2.586,17 2.293,16.707 Q2,16.414 2,16 Q2,15.586 2.293,15.293 Z"/>
        <path d="M13.293,13.293 L14.293,12.293 Q16.5,10.169 18.693,12.279 L21.707,15.293 Q22,15.586 22,16 Q22,16.414 21.707,16.707 Q21.414,17 21,17 Q20.586,17 20.293,16.707 L17.307,13.721 Q16.5,12.944 15.707,13.707 L14.707,14.707 Q14.414,15 14,15 Q13.586,15 13.293,14.707 Q13,14.414 13,14 Q13,13.586 13.293,13.293 Z"/>
    </g>
</svg>
