<?xml version="1.0" encoding="UTF-8" standalone="no"?>
<!-- Created with Inkscape (http://www.inkscape.org/) -->

<svg
   version="1.1"
   id="svg1"
   width="24"
   height="24"
   viewBox="0 0 24 24"
   sodipodi:docname="ashyterm.svg"
   xml:space="preserve"
   inkscape:version="1.4.2 (ebf0e940d0, 2025-05-08)"
   inkscape:export-filename="../timeshift.svg"
   inkscape:export-xdpi="96"
   inkscape:export-ydpi="96"
   xmlns:inkscape="http://www.inkscape.org/namespaces/inkscape"
   xmlns:sodipodi="http://sodipodi.sourceforge.net/DTD/sodipodi-0.dtd"
   xmlns="http://www.w3.org/2000/svg"
   xmlns:svg="http://www.w3.org/2000/svg"><defs
     id="defs1"><linearGradient
       x1="22.1875"
       y1="23.0625"
       x2="5.318624"
       y2="5.3239861"
       gradientUnits="userSpaceOnUse"
       gradientTransform="scale(0.75)"
       spreadMethod="pad"
       id="linearGradient3"><stop
         style="stop-opacity:1;stop-color:#ff0000"
         offset="0"
         id="stop1" /><stop
         style="stop-opacity:1;stop-color:#ff5555"
         offset="0.997054"
         id="stop2" /><stop
         style="stop-opacity:1;stop-color:#3f3f3f"
         offset="1"
         id="stop3" /></linearGradient></defs><sodipodi:namedview
     id="namedview1"
     pagecolor="#ffffff"
     bordercolor="#000000"
     borderopacity="0.25"
     inkscape:showpageshadow="2"
     inkscape:pageopacity="0.0"
     inkscape:pagecheckerboard="0"
     inkscape:deskcolor="#d1d1d1"
     inkscape:zoom="5.7484473"
     inkscape:cx="-32.704483"
     inkscape:cy="3.3922203"
     inkscape:window-width="1920"
     inkscape:window-height="1005"
     inkscape:window-x="0"
     inkscape:window-y="0"
     inkscape:window-maximized="1"
     inkscape:current-layer="g1"><inkscape:page
       x="0"
       y="0"
       inkscape:label="1"
       id="page1"
       width="24"
       height="24"
       margin="0"
       bleed="0" /></sodipodi:namedview><g
     id="g1"
     inkscape:groupmode="layer"
     inkscape:label="1"><path
       id="path3"
       d="m 5.699,0.75 h 6.602 c 2.742,0 4.949,2.207 4.949,4.949 v 6.602 c 0,2.742 -2.207,4.949 -4.949,4.949 H 5.699 C 2.957,17.25 0.75,15.043 0.75,12.301 V 5.699 C 0.75,2.957 2.957,0.75 5.699,0.75 Z"
       style="fill:url(#linearGradient3);stroke:none"
       transform="scale(1.3333333)" /><path
       style="fill:#f9f9f9;stroke-width:0.653353"
       d="m 12.689151,18.734281 c -1.919846,-0.677483 -2.9259517,-0.877228 -3.7150435,-0.852712 -0.8383655,0.07084 -1.552054,0.323584 -2.3741376,0.587807 -0.4504991,0.12845 -0.4510966,0.121785 -0.030191,-0.338536 0.236164,-0.258266 1.0705779,-0.872882 1.8542638,-1.365806 1.0665266,-0.670831 1.6575033,-0.843522 2.3498183,-0.843522 1.090451,0 1.811964,-0.649568 1.57881,-1.358757 -0.875635,-1.394435 -2.9687447,-3.214707 -2.9687447,-3.710766 0,-0.415212 0.8096847,-1.4694572 1.7787197,-2.47039 C 11.591445,7.9386988 11.776954,7.5844685 11.643207,7.4639931 11.364514,7.2129599 8.6917907,6.7745827 7.4428281,6.7745827 c -0.9975594,0 -1.8768678,0.3060269 -1.8768678,0.9503924 0,0.1787654 0.1223091,0.6752256 0.5115915,1.1032484 L 6.785328,9.6064457 C 6.3171725,10.128649 6.1171768,10.694695 5.3119756,10.694695 c -1.1548531,0 -1.1548531,-0.9144843 -1.148746,-1.8039937 0.163067,-2.1782046 3.5624124,-4.3616356 6.7776434,-4.0490112 2.033662,0.198096 3.81628,0.4836328 5.763143,0.626189 1.083141,0.052268 1.762169,-0.2135151 2.778035,-0.5898509 0.736161,-0.272717 0.266691,0.6046937 -0.835373,1.5612593 -1.325538,1.1505403 -2.10981,1.8262144 -4.23295,1.6348124 -1.58803,-0.14316 -2.022515,-0.2256015 -2.386323,0.7222437 -0.288711,0.7521914 0.02645,1.4690834 1.526091,2.9998734 0.739498,0.754855 1.062386,1.242419 1.057259,1.719509 -0.0047,0.426952 -0.264819,0.845514 -0.838789,1.439743 -0.506063,0.523928 -0.795801,1.045096 -0.72342,1.158157 0.227098,0.354721 1.730611,1.114589 2.55008,1.114589 0.43193,0 1.247197,-0.118818 1.732028,-0.357615 0.820097,-0.403906 1.168202,-0.400264 1.168202,0.01229 0,0.326644 -2.581403,2.309202 -4.057695,2.305426 -0.268553,-7.19e-4 -1.056919,-0.208675 -1.75201,-0.453971 z"
       id="path4-6" /></g></svg>
