<svg xmlns="http://www.w3.org/2000/svg" xmlns:xlink="http://www.w3.org/1999/xlink" xml:space="preserve" width="24" height="24" viewBox="0 0 24 24"><defs><linearGradient id="c" x1=".05" x2="1" y2="1" gradientTransform="matrix(22 0 0 22 -56.75 -22.125)" gradientUnits="userSpaceOnUse"><stop offset=".2" stop-color="#7e0000" style="stop-color:#002a44;stop-opacity:1"/><stop offset=".205" stop-color="#ae0003" style="stop-color:#d3d6d8;stop-opacity:1"/><stop offset="1" stop-color="#7e0002" style="stop-color:#8596a1;stop-opacity:1"/></linearGradient><linearGradient id="d" x1="123.3" x2="8.261" y1="120.17" y2="13.466" gradientTransform="translate(53.824 2.949)scale(.18333)" gradientUnits="userSpaceOnUse"><stop offset="0" stop-color="#0257a9"/><stop offset="1" stop-color="#4c92d6"/></linearGradient><linearGradient xlink:href="#c" id="e" x1=".05" x2="1" y2="1" gradientTransform="matrix(22 0 0 22 0 -.008)" gradientUnits="userSpaceOnUse"/></defs><rect width="22" height="22" x="1" y=".992" fill="url(#d)" stroke="gray" stroke-opacity=".2" opacity=".9" rx="6.6" style="fill:url(#e);-inkscape-stroke:hairline" vector-effect="non-scaling-stroke"/><path d="M14.35 4.056q-.124 0-.263.023c-1.481.247-1.419 1.973-1.419 1.973s0 .763.712 1.15c.594.34.935-.028.993-.086s1.264-1.567 1.07 1.299c0 0 .424-.462.451-1.562s-.681-1.168-.681-1.168-.312-.079-.933.592c-.62.67-.663.64-.663.64s-.176.124-.196-.187-.088-1.253.86-1.762c.946-.51 1.407.739 1.407.739s-.105-1.649-1.339-1.65m-2.674.714a.503.671 77.92 0 0-.173.02.503.671 77.92 0 0-.552.632.503.671 77.92 0 0 .762.352.503.671 77.92 0 0 .552-.633.503.671 77.92 0 0-.589-.371m-3.123.213s-.424.462-.45 1.561c-.027 1.1.68 1.165.68 1.165s.311.078.932-.592c.62-.67.664-.64.664-.64s.175-.123.196.188c.02.31.087 1.255-.86 1.762-.948.507-1.408-.739-1.408-.739s.12 1.875 1.601 1.628c1.482-.247 1.42-1.973 1.42-1.973s.001-.763-.713-1.15c-.593-.34-.934.028-.993.087S8.36 7.847 8.553 4.983m3.269.917a.514.514 0 0 0-.473.551.5.5 0 0 0 .023.12s.3 1.188 1.907 1.227c0-.001-.928-.663-.906-1.425a.514.514 0 0 0-.551-.473" style="fill:#002a44;stroke-width:.0597892;fill-opacity:1"/><path d="M6.594 13.425a.355.355 0 0 0-.358.355v.002c0 .198.16.357.358.357h10.812c.198 0 .358-.16.358-.357v-.002a.355.355 0 0 0-.358-.355zm0 2.219a.357.357 0 1 0 0 .714h10.812a.357.357 0 1 0 0-.714zm0 2.219q-.035-.001-.068.005H6.52l-.004.003h-.001a.356.356 0 0 0-.278.348v.001c0 .198.16.358.358.358h10.812c.198 0 .358-.16.358-.358v-.001c0-.17-.118-.31-.276-.347l-.005-.004h-.01a.4.4 0 0 0-.067-.005zm0 2.22a.357.357 0 1 0 0 .714h6.05a.357.357 0 1 0 0-.715z" style="fill:#002a44;fill-opacity:1;fill-rule:nonzero;stroke:none;stroke-width:1.06989"/><path d="M19.159 10.04h-7.523a1.043 1.043 0 0 0-1.04 1.04v4.512c.002.574.466.966 1.04.968h1.31v1.819l1.746-1.82h4.467c.574 0 1.038-.393 1.04-.967V11.08a1.044 1.044 0 0 0-1.04-1.04" style="fill:#fff;fill-opacity:1;fill-rule:nonzero;stroke:none;stroke-width:4.12628;stroke-linecap:butt;stroke-linejoin:miter;stroke-miterlimit:10;stroke-dasharray:none;stroke-opacity:1"/><path d="M14.458 10.804a.263.263 0 0 0-.263.264v4.468a.263.263 0 1 0 .526 0v-4.468a.263.263 0 0 0-.263-.264m.94.484a.263.263 0 0 0-.264.264v3.502c0 .146.117.265.263.265a.264.264 0 0 0 .263-.265v-3.502a.263.263 0 0 0-.263-.264m-1.879.884a.263.263 0 0 0-.263.263v1.734a.263.263 0 1 0 .526 0v-1.734a.263.263 0 0 0-.263-.263m3.758 0a.263.263 0 0 0-.263.263v1.734a.263.263 0 1 0 .526 0v-1.734a.263.263 0 0 0-.263-.263m-4.697.322a.263.263 0 0 0-.263.263v1.09a.263.263 0 1 0 .526 0v-1.09a.263.263 0 0 0-.263-.263m3.758 0a.263.263 0 0 0-.263.263v1.09a.263.263 0 1 0 .526 0v-1.09a.263.263 0 0 0-.263-.263m1.878.455a.263.263 0 0 0-.263.263v.181a.263.263 0 1 0 .526 0v-.18a.263.263 0 0 0-.263-.264" style="fill:#002a44;fill-opacity:1;fill-rule:nonzero;stroke:none;stroke-width:1.08291"/></svg>