<?xml version="1.0" encoding="UTF-8" standalone="no"?>
<svg
   viewBox="0 0 24 24"
   version="1.1"
   id="svg11414"
   sodipodi:docname="bigocrimage.svg"
   width="24"
   height="24"
   xml:space="preserve"
   inkscape:version="1.4.3 (0d15f75042, 2025-12-25)"
   inkscape:export-filename="restaurar.png"
   inkscape:export-xdpi="800"
   inkscape:export-ydpi="800"
   xmlns:inkscape="http://www.inkscape.org/namespaces/inkscape"
   xmlns:sodipodi="http://sodipodi.sourceforge.net/DTD/sodipodi-0.dtd"
   xmlns:xlink="http://www.w3.org/1999/xlink"
   xmlns="http://www.w3.org/2000/svg"
   xmlns:svg="http://www.w3.org/2000/svg"><sodipodi:namedview
     id="namedview11416"
     pagecolor="#ffffff"
     bordercolor="#000000"
     borderopacity="0.25"
     inkscape:showpageshadow="2"
     inkscape:pageopacity="0.0"
     inkscape:pagecheckerboard="0"
     inkscape:deskcolor="#d1d1d1"
     showgrid="false"
     inkscape:zoom="29.188226"
     inkscape:cx="30.149143"
     inkscape:cy="16.342206"
     inkscape:window-width="2560"
     inkscape:window-height="1371"
     inkscape:window-x="0"
     inkscape:window-y="0"
     inkscape:window-maximized="1"
     inkscape:current-layer="svg11414"
     showguides="true" /><defs
     id="defs11384"><linearGradient
       id="linearGradient31"
       x1="0.050000001"
       x2="1"
       y2="1"
       gradientTransform="matrix(22,0,0,22,-56.75,-22.125)"
       gradientUnits="userSpaceOnUse"><stop
         stop-color="#7e0000"
         offset="0.2"
         id="stop28"
         style="stop-color:#4958d7;stop-opacity:1;" /><stop
         stop-color="#ae0003"
         offset="0.205"
         id="stop30"
         style="stop-color:#008d5b;stop-opacity:1;" /><stop
         stop-color="#7e0002"
         offset="1"
         id="stop31"
         style="stop-color:#3632d1;stop-opacity:1;" /></linearGradient><linearGradient
       id="linearGradient77"
       x1=".05"
       x2="1"
       y2="1"
       gradientTransform="matrix(22,0,0,22,-56.75,-22.125)"
       gradientUnits="userSpaceOnUse"><stop
         stop-color="#7e0000"
         offset="0.2"
         id="stop75"
         style="stop-color:#1a2973;stop-opacity:1;" /><stop
         stop-color="#ae0003"
         offset="0.205"
         id="stop76"
         style="stop-color:#273ead;stop-opacity:1;" /><stop
         stop-color="#7e0002"
         offset="1"
         id="stop77"
         style="stop-color:#2945c4;stop-opacity:1;" /></linearGradient><linearGradient
       id="linearGradient71"
       x1="0.050000001"
       x2="1"
       y1="0"
       y2="1"
       gradientTransform="matrix(22,0,0,22,148.25,3.3011262)"
       gradientUnits="userSpaceOnUse"
       spreadMethod="pad"><stop
         style="stop-color:#f9f9f9;stop-opacity:0.50196081;"
         offset="0.2"
         id="stop69" /><stop
         style="stop-color:#ba9060;stop-opacity:1;"
         offset="0.205"
         id="stop70" /><stop
         style="stop-color:#6a3c19;stop-opacity:1;"
         offset="1"
         id="stop71" /></linearGradient><linearGradient
       id="linearGradient67"
       x1="0.050000001"
       x2="1"
       y1="0"
       y2="1"
       gradientTransform="matrix(22,0,0,22,148.25,3.3011262)"
       gradientUnits="userSpaceOnUse"
       spreadMethod="pad"><stop
         style="stop-color:#b4f1fb;stop-opacity:1;"
         offset="0"
         id="stop65" /><stop
         style="stop-color:#80c5ef;stop-opacity:1;"
         offset="0.205"
         id="stop66" /><stop
         style="stop-color:#7668fe;stop-opacity:1;"
         offset="0.60250002"
         id="stop68" /><stop
         style="stop-color:#1d40bb;stop-opacity:1;"
         offset="1"
         id="stop67" /></linearGradient><linearGradient
       id="linearGradient64"
       x1="0.050000001"
       x2="1"
       y1="0"
       y2="1"
       gradientTransform="matrix(22,0,0,22,148.25,3.3011262)"
       gradientUnits="userSpaceOnUse"
       spreadMethod="pad"><stop
         style="stop-color:#55199d;stop-opacity:1;"
         offset="0.2"
         id="stop62" /><stop
         style="stop-color:#ba9060;stop-opacity:1;"
         offset="0.205"
         id="stop63" /><stop
         style="stop-color:#6a3c19;stop-opacity:1;"
         offset="1"
         id="stop64" /></linearGradient><linearGradient
       id="linearGradient61"
       x1="0.050000001"
       x2="1"
       y1="0"
       y2="1"
       gradientTransform="matrix(22,0,0,22,148.25,3.3011262)"
       gradientUnits="userSpaceOnUse"
       spreadMethod="pad"><stop
         style="stop-color:#43127b;stop-opacity:1;"
         offset="0.2"
         id="stop59" /><stop
         style="stop-color:#ba9060;stop-opacity:1;"
         offset="0.205"
         id="stop60" /><stop
         style="stop-color:#6a3c19;stop-opacity:1;"
         offset="1"
         id="stop61" /></linearGradient><linearGradient
       id="linearGradient58"
       x1=".05"
       x2="1"
       y1="0"
       y2="1"
       gradientTransform="matrix(22,0,0,22,148.25,3.3011262)"
       gradientUnits="userSpaceOnUse"><stop
         style="stop-color:#411178;stop-opacity:1;"
         offset="0.2"
         id="stop56" /><stop
         style="stop-color:#ba9060;stop-opacity:1;"
         offset="0.205"
         id="stop57" /><stop
         style="stop-color:#6a3c19;stop-opacity:1;"
         offset="1"
         id="stop58" /></linearGradient><linearGradient
       id="linearGradient53"
       x1=".05"
       x2="1"
       y2="1"
       gradientTransform="matrix(22,0,0,22,-55.75,5.375)"
       gradientUnits="userSpaceOnUse"><stop
         stop-color="#2191d3"
         offset=".2"
         id="stop51" /><stop
         stop-color="#2ac2f0"
         offset=".205"
         id="stop52" /><stop
         stop-color="#0948bd"
         offset="1"
         id="stop53"
         style="stop-color:#fafafa;stop-opacity:0.80000001;" /></linearGradient><style
       id="style11382">.cls-1{fill:#069;}.cls-2{fill:#2991c9;}.cls-3{fill:#fff;}.cls-4{fill:#002a44;}.cls-5{fill:#3380cc;}.cls-6{fill:#cc5e55;}</style><radialGradient
       id="paint0_radial_29_23"
       cx="0"
       cy="0"
       r="1"
       gradientUnits="userSpaceOnUse"
       gradientTransform="matrix(0,22,-22,0,11.999988,1.0000149)"><stop
         stop-color="#8FC8FF"
         id="stop11537" /><stop
         offset="1"
         stop-color="#0056A8"
         id="stop11539"
         style="stop-color:#006699;stop-opacity:1;" /></radialGradient><radialGradient
       id="paint0_radial_1_40"
       cx="0"
       cy="0"
       r="1"
       gradientUnits="userSpaceOnUse"
       gradientTransform="matrix(0,24,-24,0,-2.29062,44.73684)"><stop
         stop-color="#C2E5FF"
         id="stop11601" /><stop
         offset="1"
         stop-color="#3276AA"
         id="stop11603" /></radialGradient><radialGradient
       fx="0"
       fy="0"
       cx="0"
       cy="0"
       r="1"
       gradientUnits="userSpaceOnUse"
       gradientTransform="matrix(0,16.5,-16.5,0,8.999991,0.750011)"
       spreadMethod="pad"
       id="radialGradient16463"><stop
         style="stop-opacity:1;stop-color:#8fc8ff"
         offset="0"
         id="stop16459" /><stop
         style="stop-opacity:1;stop-color:#006699"
         offset="1"
         id="stop16461" /></radialGradient><clipPath
       clipPathUnits="userSpaceOnUse"
       id="clipPath16473"><path
         d="M 0,0 H 151 V 116 H 0 Z"
         id="path16471" /></clipPath><radialGradient
       fx="0"
       fy="0"
       cx="0"
       cy="0"
       r="1"
       gradientUnits="userSpaceOnUse"
       gradientTransform="matrix(0,16.5,-16.5,0,8.999991,0.750011)"
       spreadMethod="pad"
       id="radialGradient16463-5"><stop
         style="stop-opacity:1;stop-color:#8fc8ff"
         offset="0"
         id="stop16459-9" /><stop
         style="stop-opacity:1;stop-color:#006699"
         offset="1"
         id="stop16461-4" /></radialGradient><clipPath
       clipPathUnits="userSpaceOnUse"
       id="clipPath16473-9"><path
         d="M 0,0 H 151 V 116 H 0 Z"
         id="path16471-0" /></clipPath><style
       id="style1">.cls-1{fill:#16171c;stroke:#000;stroke-miterlimit:10;}.cls-2{fill:#2c2d3d;}.cls-3{fill:url(#linear-gradient);}.cls-4{fill:url(#linear-gradient-2);}.cls-5{fill:url(#linear-gradient-3);}</style><linearGradient
       id="linear-gradient"
       x1="70.74"
       y1="207.69"
       x2="304.39"
       y2="456.44"
       gradientTransform="matrix(1, 0, 0, -1, 16.81, 529.63)"
       gradientUnits="userSpaceOnUse"><stop
         offset="0"
         stop-color="#2d85c6"
         id="stop1" /><stop
         offset="1"
         stop-color="#04bacc"
         id="stop2" /></linearGradient><linearGradient
       id="linear-gradient-2"
       x1="146.39"
       y1="136.63"
       x2="380.04"
       y2="385.38"
       xlink:href="#linear-gradient" /><linearGradient
       id="linear-gradient-3"
       x1="127.32"
       y1="154.54"
       x2="360.97"
       y2="403.29"
       xlink:href="#linear-gradient" /><linearGradient
       id="a"
       x1="123.3"
       x2="8.2605"
       y1="120.17"
       y2="13.466"
       gradientTransform="matrix(0.18333,0,0,0.18333,53.823536,2.948851)"
       gradientUnits="userSpaceOnUse"><stop
         stop-color="#0257a9"
         offset="0"
         id="stop1-3" /><stop
         stop-color="#4c92d6"
         offset="1"
         id="stop2-6" /></linearGradient><style
       id="style2">.cls-1{stroke:#333;stroke-miterlimit:10;stroke-width:6px;fill:url(#linear-gradient);}.cls-2{fill:url(#linear-gradient-2);}.cls-3{fill:#0d0e0e;}.cls-4{opacity:0.7;isolation:isolate;fill:url(#linear-gradient-3);}</style><linearGradient
       id="linear-gradient-35"
       x1="100.05"
       y1="164.11"
       x2="100.05"
       y2="3.23"
       gradientUnits="userSpaceOnUse"><stop
         offset="0"
         id="stop4-6" /><stop
         offset="0.6"
         stop-color="#fff"
         id="stop6" /><stop
         offset="0.66"
         stop-color="#fff"
         id="stop8" /><stop
         offset="0.7"
         stop-color="#fafafa"
         id="stop10" /><stop
         offset="0.74"
         stop-color="#ececec"
         id="stop12" /><stop
         offset="0.78"
         stop-color="#d5d5d5"
         id="stop14" /><stop
         offset="0.83"
         stop-color="#b4b4b4"
         id="stop16" /><stop
         offset="0.88"
         stop-color="#8a8a8a"
         id="stop18" /><stop
         offset="0.93"
         stop-color="#575757"
         id="stop20" /><stop
         offset="0.98"
         stop-color="#1b1b1b"
         id="stop22" /><stop
         offset="1"
         id="stop24" /></linearGradient><linearGradient
       id="linear-gradient-2-2"
       x1="106.56"
       y1="83.76"
       x2="195.62"
       y2="83.76"
       gradientUnits="userSpaceOnUse"><stop
         offset="0"
         id="stop27" /><stop
         offset="1"
         stop-color="#fff"
         id="stop29" /></linearGradient><linearGradient
       id="linear-gradient-3-9"
       x1="100.54"
       y1="86.27"
       x2="100.54"
       y2="5.83"
       gradientUnits="userSpaceOnUse"><stop
         offset="0"
         stop-color="#fff"
         stop-opacity="0.6"
         id="stop32" /><stop
         offset="1"
         stop-color="#fff"
         stop-opacity="0"
         id="stop34" /></linearGradient><linearGradient
       id="a-1"
       x1=".05"
       x2="1"
       y2="1"
       gradientTransform="matrix(22,0,0,22,25.25,-0.62500002)"
       gradientUnits="userSpaceOnUse"><stop
         stop-color="#c0d1cd"
         offset="0.2"
         id="stop1-2"
         style="stop-color:#4389d0;stop-opacity:0.90196079;" /><stop
         offset=".205"
         id="stop2-7" /><stop
         stop-color="#454545"
         offset="1"
         id="stop3-0"
         style="stop-color:#3c62df;stop-opacity:1;" /></linearGradient><linearGradient
       id="linearGradient9"
       x1="2.0339"
       x2="21.999"
       y1="17.905"
       y2="17.905"
       gradientTransform="translate(25.25,-0.55472202)"
       gradientUnits="userSpaceOnUse"><stop
         stop-color="#c0d1cd"
         offset="0"
         id="stop4-9" /><stop
         stop-color="#f5f6ec"
         offset="1"
         id="stop5" /></linearGradient><linearGradient
       id="a-2"
       x1=".05"
       x2="1"
       y2="1"
       gradientTransform="matrix(22,0,0,22,-55.75,5.375)"
       gradientUnits="userSpaceOnUse"><stop
         stop-color="#2191d3"
         offset=".2"
         id="stop8-8" /><stop
         stop-color="#2ac2f0"
         offset=".205"
         id="stop9" /><stop
         stop-color="#0948bd"
         offset="1"
         id="stop10-9" /></linearGradient><linearGradient
       id="a-3"
       x1=".05"
       x2="1"
       y2="1"
       gradientTransform="matrix(22,0,0,22,-56.75,-22.125)"
       gradientUnits="userSpaceOnUse"><stop
         stop-color="#7e0000"
         offset=".2"
         id="stop2-61" /><stop
         stop-color="#ae0003"
         offset=".205"
         id="stop3-2" /><stop
         stop-color="#7e0002"
         offset="1"
         id="stop4-93" /></linearGradient><linearGradient
       id="a-30"
       x1=".05"
       x2="1"
       y1="0"
       y2="1"
       gradientTransform="matrix(22,0,0,22,148.25,3.3011262)"
       gradientUnits="userSpaceOnUse"
       xlink:href="#linearGradient64"><stop
         style="stop-color:#f25edf;stop-opacity:1;"
         offset="0"
         id="stop1-30" /><stop
         style="stop-color:#8c2df9;stop-opacity:1;"
         offset="0.38993961"
         id="stop2-9" /><stop
         style="stop-color:#43127b;stop-opacity:1;"
         offset="1"
         id="stop3-25" /></linearGradient><linearGradient
       id="linearGradient148"
       x1="93.251526"
       y1="104.3218"
       x2="-67.822433"
       y2="-104.28946"
       spreadMethod="pad"
       gradientUnits="userSpaceOnUse"
       gradientTransform="matrix(0.03254379,0,0,0.03260219,4.2278406,4.232806)"><stop
         id="stop146"
         offset="0"
         stop-color="#093b8e"
         style="stop-color:#300b58;stop-opacity:1;" /><stop
         id="stop147"
         offset="0.5"
         stop-color="#093b8e"
         style="stop-color:#872bfa;stop-opacity:1;" /><stop
         id="stop148"
         offset="1"
         stop-color="#71f6b8"
         style="stop-color:#ff64dc;stop-opacity:1;" /></linearGradient><linearGradient
       id="linearGradient191"
       x1="93.251526"
       y1="104.3218"
       x2="-67.822433"
       y2="-104.28946"
       spreadMethod="pad"
       gradientUnits="userSpaceOnUse"
       gradientTransform="matrix(0.03254379,0,0,0.03260219,4.2278406,4.232806)"><stop
         id="stop189"
         offset="0"
         stop-color="#093b8e"
         style="stop-color:#0938ac;stop-opacity:1;" /><stop
         id="stop190"
         offset="0.5"
         stop-color="#093b8e"
         style="stop-color:#7562ff;stop-opacity:1;" /><stop
         id="stop191"
         offset="1"
         stop-color="#71f6b8"
         style="stop-color:#86fae6;stop-opacity:1;" /></linearGradient><linearGradient
       id="a-0"
       x1=".05"
       x2="1"
       y2="1"
       gradientTransform="matrix(22,0,0,22,224,4)"
       gradientUnits="userSpaceOnUse"><stop
         stop-color="#8f8f8f"
         offset=".2"
         id="stop1-5" /><stop
         stop-color="#fff"
         offset=".205"
         id="stop2-94" /><stop
         stop-color="#dadada"
         offset="1"
         id="stop3-6" /></linearGradient><linearGradient
       inkscape:collect="always"
       xlink:href="#linearGradient31"
       id="linearGradient73"
       gradientUnits="userSpaceOnUse"
       gradientTransform="matrix(22,0,0,22,-10e-6,-0.0079859)"
       x1="0.050000001"
       x2="1"
       y2="1" /><linearGradient
       id="linearGradient77-2"
       x1="0.050000001"
       x2="1"
       y2="1"
       gradientTransform="matrix(22,0,0,22,-56.75,-22.125)"
       gradientUnits="userSpaceOnUse"><stop
         stop-color="#7e0000"
         offset="0.2"
         id="stop75-4"
         style="stop-color:#c64c51;stop-opacity:1;" /><stop
         stop-color="#ae0003"
         offset="0.205"
         id="stop76-7"
         style="stop-color:#b4262c;stop-opacity:1;" /><stop
         stop-color="#7e0002"
         offset="1"
         id="stop77-7"
         style="stop-color:#7e0000;stop-opacity:0.90196079;" /></linearGradient><style
       id="current-color-scheme"
       type="text/css">
   .ColorScheme-Text { color:#dfdfdf; } .ColorScheme-Highlight { color:#4285f4; } .ColorScheme-NeutralText { color:#ff9800; } .ColorScheme-PositiveText { color:#4caf50; } .ColorScheme-NegativeText { color:#f44336; }
  </style><style
       id="current-color-scheme-3"
       type="text/css">
   .ColorScheme-Text { color:#dfdfdf; } .ColorScheme-Highlight { color:#4285f4; } .ColorScheme-NeutralText { color:#ff9800; } .ColorScheme-PositiveText { color:#4caf50; } .ColorScheme-NegativeText { color:#f44336; }
  </style><style
       id="current-color-scheme-7"
       type="text/css">
   .ColorScheme-Text { color:#dfdfdf; } .ColorScheme-Highlight { color:#4285f4; } .ColorScheme-NeutralText { color:#ff9800; } .ColorScheme-PositiveText { color:#4caf50; } .ColorScheme-NegativeText { color:#f44336; }
  </style><style
       id="current-color-scheme-35"
       type="text/css">
   .ColorScheme-Text { color:#dfdfdf; } .ColorScheme-Highlight { color:#4285f4; } .ColorScheme-NeutralText { color:#ff9800; } .ColorScheme-PositiveText { color:#4caf50; } .ColorScheme-NegativeText { color:#f44336; }
  </style><style
       id="current-color-scheme-1"
       type="text/css">
   .ColorScheme-Text { color:#dfdfdf; } .ColorScheme-Highlight { color:#4285f4; } .ColorScheme-NeutralText { color:#ff9800; } .ColorScheme-PositiveText { color:#4caf50; } .ColorScheme-NegativeText { color:#f44336; }
  </style><style
       id="current-color-scheme-70"
       type="text/css">
   .ColorScheme-Text { color:#dfdfdf; } .ColorScheme-Highlight { color:#4285f4; } .ColorScheme-NeutralText { color:#ff9800; } .ColorScheme-PositiveText { color:#4caf50; } .ColorScheme-NegativeText { color:#f44336; }
  </style><linearGradient
       id="linearGradient77-6"
       x1=".05"
       x2="1"
       y2="1"
       gradientTransform="matrix(22,0,0,22,-56.75,-22.125)"
       gradientUnits="userSpaceOnUse"><stop
         stop-color="#7e0000"
         offset="0.2"
         id="stop75-1"
         style="stop-color:#1a2973;stop-opacity:1;" /><stop
         stop-color="#ae0003"
         offset="0.205"
         id="stop76-8"
         style="stop-color:#273ead;stop-opacity:1;" /><stop
         stop-color="#7e0002"
         offset="1"
         id="stop77-79"
         style="stop-color:#2945c4;stop-opacity:1;" /></linearGradient><linearGradient
       id="linearGradient53-9"
       x1=".05"
       x2="1"
       y2="1"
       gradientTransform="matrix(22,0,0,22,-55.75,5.375)"
       gradientUnits="userSpaceOnUse"><stop
         stop-color="#2191d3"
         offset=".2"
         id="stop51-3" /><stop
         stop-color="#2ac2f0"
         offset=".205"
         id="stop52-1" /><stop
         stop-color="#0948bd"
         offset="1"
         id="stop53-9"
         style="stop-color:#fafafa;stop-opacity:0.80000001;" /></linearGradient><style
       id="style11382-4">.cls-1{fill:#069;}.cls-2{fill:#2991c9;}.cls-3{fill:#fff;}.cls-4{fill:#002a44;}.cls-5{fill:#3380cc;}.cls-6{fill:#cc5e55;}</style><radialGradient
       id="paint0_radial_29_23-7"
       cx="0"
       cy="0"
       r="1"
       gradientUnits="userSpaceOnUse"
       gradientTransform="matrix(0,22,-22,0,11.999988,1.0000149)"><stop
         stop-color="#8FC8FF"
         id="stop11537-8" /><stop
         offset="1"
         stop-color="#0056A8"
         id="stop11539-4"
         style="stop-color:#006699;stop-opacity:1;" /></radialGradient><radialGradient
       id="paint0_radial_1_40-5"
       cx="0"
       cy="0"
       r="1"
       gradientUnits="userSpaceOnUse"
       gradientTransform="matrix(0,24,-24,0,-2.29062,44.73684)"><stop
         stop-color="#C2E5FF"
         id="stop11601-0" /><stop
         offset="1"
         stop-color="#3276AA"
         id="stop11603-3" /></radialGradient><radialGradient
       fx="0"
       fy="0"
       cx="0"
       cy="0"
       r="1"
       gradientUnits="userSpaceOnUse"
       gradientTransform="matrix(0,16.5,-16.5,0,8.999991,0.750011)"
       spreadMethod="pad"
       id="radialGradient16463-6"><stop
         style="stop-opacity:1;stop-color:#8fc8ff"
         offset="0"
         id="stop16459-1" /><stop
         style="stop-opacity:1;stop-color:#006699"
         offset="1"
         id="stop16461-0" /></radialGradient><clipPath
       clipPathUnits="userSpaceOnUse"
       id="clipPath16473-6"><path
         d="M 0,0 H 151 V 116 H 0 Z"
         id="path16471-3" /></clipPath><radialGradient
       fx="0"
       fy="0"
       cx="0"
       cy="0"
       r="1"
       gradientUnits="userSpaceOnUse"
       gradientTransform="matrix(0,16.5,-16.5,0,8.999991,0.750011)"
       spreadMethod="pad"
       id="radialGradient16463-5-2"><stop
         style="stop-opacity:1;stop-color:#8fc8ff"
         offset="0"
         id="stop16459-9-0" /><stop
         style="stop-opacity:1;stop-color:#006699"
         offset="1"
         id="stop16461-4-6" /></radialGradient><clipPath
       clipPathUnits="userSpaceOnUse"
       id="clipPath16473-9-1"><path
         d="M 0,0 H 151 V 116 H 0 Z"
         id="path16471-0-5" /></clipPath><style
       id="style1-5">.cls-1{fill:#16171c;stroke:#000;stroke-miterlimit:10;}.cls-2{fill:#2c2d3d;}.cls-3{fill:url(#linear-gradient);}.cls-4{fill:url(#linear-gradient-2);}.cls-5{fill:url(#linear-gradient-3);}</style><style
       id="style2-9">.cls-1{stroke:#333;stroke-miterlimit:10;stroke-width:6px;fill:url(#linear-gradient);}.cls-2{fill:url(#linear-gradient-2);}.cls-3{fill:#0d0e0e;}.cls-4{opacity:0.7;isolation:isolate;fill:url(#linear-gradient-3);}</style><linearGradient
       id="a-1-8"
       x1=".05"
       x2="1"
       y2="1"
       gradientTransform="matrix(22,0,0,22,25.25,-0.62500002)"
       gradientUnits="userSpaceOnUse"><stop
         stop-color="#c0d1cd"
         offset="0.2"
         id="stop1-2-8"
         style="stop-color:#4389d0;stop-opacity:0.90196079;" /><stop
         offset=".205"
         id="stop2-7-4" /><stop
         stop-color="#454545"
         offset="1"
         id="stop3-0-3"
         style="stop-color:#3c62df;stop-opacity:1;" /></linearGradient><linearGradient
       id="a-2-9"
       x1=".05"
       x2="1"
       y2="1"
       gradientTransform="matrix(22,0,0,22,-55.75,5.375)"
       gradientUnits="userSpaceOnUse"><stop
         stop-color="#2191d3"
         offset=".2"
         id="stop8-8-2" /><stop
         stop-color="#2ac2f0"
         offset=".205"
         id="stop9-0" /><stop
         stop-color="#0948bd"
         offset="1"
         id="stop10-9-6" /></linearGradient><linearGradient
       id="a-3-8"
       x1=".05"
       x2="1"
       y2="1"
       gradientTransform="matrix(22,0,0,22,-56.75,-22.125)"
       gradientUnits="userSpaceOnUse"><stop
         stop-color="#7e0000"
         offset=".2"
         id="stop2-61-9" /><stop
         stop-color="#ae0003"
         offset=".205"
         id="stop3-2-2" /><stop
         stop-color="#7e0002"
         offset="1"
         id="stop4-93-6" /></linearGradient><linearGradient
       id="a-0-7"
       x1=".05"
       x2="1"
       y2="1"
       gradientTransform="matrix(22,0,0,22,224,4)"
       gradientUnits="userSpaceOnUse"><stop
         stop-color="#8f8f8f"
         offset=".2"
         id="stop1-5-2" /><stop
         stop-color="#fff"
         offset=".205"
         id="stop2-94-7" /><stop
         stop-color="#dadada"
         offset="1"
         id="stop3-6-2" /></linearGradient><linearGradient
       id="linearGradient77-2-6"
       x1="0.050000001"
       x2="1"
       y2="1"
       gradientTransform="matrix(22,0,0,22,-56.75,-22.125)"
       gradientUnits="userSpaceOnUse"><stop
         stop-color="#7e0000"
         offset="0.2"
         id="stop75-4-1"
         style="stop-color:#1a2973;stop-opacity:1;" /><stop
         stop-color="#ae0003"
         offset="0.205"
         id="stop76-7-0"
         style="stop-color:#273ead;stop-opacity:1;" /><stop
         stop-color="#7e0002"
         offset="1"
         id="stop77-7-6"
         style="stop-color:#2945c4;stop-opacity:1;" /></linearGradient><linearGradient
       id="linearGradient77-0"
       x1=".05"
       x2="1"
       y2="1"
       gradientTransform="matrix(22,0,0,22,-56.75,-22.125)"
       gradientUnits="userSpaceOnUse"><stop
         stop-color="#7e0000"
         offset="0.2"
         id="stop75-9"
         style="stop-color:#1a2973;stop-opacity:1;" /><stop
         stop-color="#ae0003"
         offset="0.205"
         id="stop76-1"
         style="stop-color:#273ead;stop-opacity:1;" /><stop
         stop-color="#7e0002"
         offset="1"
         id="stop77-77"
         style="stop-color:#2945c4;stop-opacity:1;" /></linearGradient><linearGradient
       id="linearGradient53-1"
       x1=".05"
       x2="1"
       y2="1"
       gradientTransform="matrix(22,0,0,22,-55.75,5.375)"
       gradientUnits="userSpaceOnUse"><stop
         stop-color="#2191d3"
         offset=".2"
         id="stop51-2" /><stop
         stop-color="#2ac2f0"
         offset=".205"
         id="stop52-9" /><stop
         stop-color="#0948bd"
         offset="1"
         id="stop53-3"
         style="stop-color:#fafafa;stop-opacity:0.80000001;" /></linearGradient><style
       id="style11382-9">.cls-1{fill:#069;}.cls-2{fill:#2991c9;}.cls-3{fill:#fff;}.cls-4{fill:#002a44;}.cls-5{fill:#3380cc;}.cls-6{fill:#cc5e55;}</style><radialGradient
       id="paint0_radial_29_23-0"
       cx="0"
       cy="0"
       r="1"
       gradientUnits="userSpaceOnUse"
       gradientTransform="matrix(0,22,-22,0,11.999988,1.0000149)"><stop
         stop-color="#8FC8FF"
         id="stop11537-88" /><stop
         offset="1"
         stop-color="#0056A8"
         id="stop11539-5"
         style="stop-color:#006699;stop-opacity:1;" /></radialGradient><radialGradient
       id="paint0_radial_1_40-0"
       cx="0"
       cy="0"
       r="1"
       gradientUnits="userSpaceOnUse"
       gradientTransform="matrix(0,24,-24,0,-2.29062,44.73684)"><stop
         stop-color="#C2E5FF"
         id="stop11601-9" /><stop
         offset="1"
         stop-color="#3276AA"
         id="stop11603-6" /></radialGradient><radialGradient
       fx="0"
       fy="0"
       cx="0"
       cy="0"
       r="1"
       gradientUnits="userSpaceOnUse"
       gradientTransform="matrix(0,16.5,-16.5,0,8.999991,0.750011)"
       spreadMethod="pad"
       id="radialGradient16463-3"><stop
         style="stop-opacity:1;stop-color:#8fc8ff"
         offset="0"
         id="stop16459-8" /><stop
         style="stop-opacity:1;stop-color:#006699"
         offset="1"
         id="stop16461-5" /></radialGradient><clipPath
       clipPathUnits="userSpaceOnUse"
       id="clipPath16473-61"><path
         d="M 0,0 H 151 V 116 H 0 Z"
         id="path16471-1" /></clipPath><radialGradient
       fx="0"
       fy="0"
       cx="0"
       cy="0"
       r="1"
       gradientUnits="userSpaceOnUse"
       gradientTransform="matrix(0,16.5,-16.5,0,8.999991,0.750011)"
       spreadMethod="pad"
       id="radialGradient16463-5-5"><stop
         style="stop-opacity:1;stop-color:#8fc8ff"
         offset="0"
         id="stop16459-9-9" /><stop
         style="stop-opacity:1;stop-color:#006699"
         offset="1"
         id="stop16461-4-8" /></radialGradient><clipPath
       clipPathUnits="userSpaceOnUse"
       id="clipPath16473-9-4"><path
         d="M 0,0 H 151 V 116 H 0 Z"
         id="path16471-0-8" /></clipPath><style
       id="style1-1">.cls-1{fill:#16171c;stroke:#000;stroke-miterlimit:10;}.cls-2{fill:#2c2d3d;}.cls-3{fill:url(#linear-gradient);}.cls-4{fill:url(#linear-gradient-2);}.cls-5{fill:url(#linear-gradient-3);}</style><style
       id="style2-4">.cls-1{stroke:#333;stroke-miterlimit:10;stroke-width:6px;fill:url(#linear-gradient);}.cls-2{fill:url(#linear-gradient-2);}.cls-3{fill:#0d0e0e;}.cls-4{opacity:0.7;isolation:isolate;fill:url(#linear-gradient-3);}</style><linearGradient
       id="a-1-7"
       x1=".05"
       x2="1"
       y2="1"
       gradientTransform="matrix(22,0,0,22,25.25,-0.62500002)"
       gradientUnits="userSpaceOnUse"><stop
         stop-color="#c0d1cd"
         offset="0.2"
         id="stop1-2-4"
         style="stop-color:#4389d0;stop-opacity:0.90196079;" /><stop
         offset=".205"
         id="stop2-7-1" /><stop
         stop-color="#454545"
         offset="1"
         id="stop3-0-8"
         style="stop-color:#3c62df;stop-opacity:1;" /></linearGradient><linearGradient
       id="a-2-7"
       x1=".05"
       x2="1"
       y2="1"
       gradientTransform="matrix(22,0,0,22,-55.75,5.375)"
       gradientUnits="userSpaceOnUse"><stop
         stop-color="#2191d3"
         offset=".2"
         id="stop8-8-5" /><stop
         stop-color="#2ac2f0"
         offset=".205"
         id="stop9-3" /><stop
         stop-color="#0948bd"
         offset="1"
         id="stop10-9-8" /></linearGradient><linearGradient
       id="a-3-83"
       x1=".05"
       x2="1"
       y2="1"
       gradientTransform="matrix(22,0,0,22,-56.75,-22.125)"
       gradientUnits="userSpaceOnUse"><stop
         stop-color="#7e0000"
         offset=".2"
         id="stop2-61-1" /><stop
         stop-color="#ae0003"
         offset=".205"
         id="stop3-2-8" /><stop
         stop-color="#7e0002"
         offset="1"
         id="stop4-93-9" /></linearGradient><linearGradient
       id="a-0-8"
       x1=".05"
       x2="1"
       y2="1"
       gradientTransform="matrix(22,0,0,22,224,4)"
       gradientUnits="userSpaceOnUse"><stop
         stop-color="#8f8f8f"
         offset=".2"
         id="stop1-5-8" /><stop
         stop-color="#fff"
         offset=".205"
         id="stop2-94-8" /><stop
         stop-color="#dadada"
         offset="1"
         id="stop3-6-9" /></linearGradient><style
       id="current-color-scheme-30"
       type="text/css">
   .ColorScheme-Text { color:#444444; } .ColorScheme-Highlight { color:#4285f4; } .ColorScheme-NeutralText { color:#ff9800; } .ColorScheme-PositiveText { color:#4caf50; } .ColorScheme-NegativeText { color:#f44336; }
  </style><style
       id="current-color-scheme-309"
       type="text/css">
   .ColorScheme-Text { color:#444444; } .ColorScheme-Highlight { color:#4285f4; } .ColorScheme-NeutralText { color:#ff9800; } .ColorScheme-PositiveText { color:#4caf50; } .ColorScheme-NegativeText { color:#f44336; }
  </style></defs><rect
     x="1"
     y="0.99201387"
     width="22"
     height="22"
     rx="6.5999999"
     fill="url(#a)"
     opacity="0.9"
     stroke="#808080"
     stroke-opacity="0.2"
     vector-effect="non-scaling-stroke"
     style="fill:url(#linearGradient73);-inkscape-stroke:hairline"
     id="rect73" /><path
     id="path74"
     style="fill:#ffffff;stroke-width:0.0597892"
     class="cls-3"
     d="m 14.34926,4.0562241 c -0.0823,-1.39e-4 -0.16956,0.007 -0.26215,0.02248 -1.48157,0.247523 -1.41872,1.973072 -1.41872,1.973072 0,0 -5e-5,0.763515 0.71202,1.149751 0.5931,0.341392 0.93456,-0.02752 0.99255,-0.08553 0.058,-0.05801 1.26393,-1.567077 1.07021,1.298602 0,0 0.42391,-0.461582 0.45082,-1.561696 0.0269,-1.100115 -0.68102,-1.168239 -0.68102,-1.168239 0,0 -0.31212,-0.07836 -0.93273,0.591894 -0.62061,0.670234 -0.66367,0.64034 -0.66367,0.64034 0,0 -0.17513,0.12373 -0.19606,-0.187142 -0.0209,-0.310902 -0.0873,-1.252531 0.85973,-1.761933 0.94705,-0.5094 1.4081,0.738941 1.4081,0.738941 0,0 -0.10517,-1.648429 -1.33908,-1.650531 z m -2.67305,0.713346 a 0.50342214,0.67142881 77.92 0 0 -0.1735,0.01964 0.50342214,0.67142881 77.92 0 0 -0.55122,0.632754 0.50342214,0.67142881 77.92 0 0 0.76188,0.35174 0.50342214,0.67142881 77.92 0 0 0.55123,-0.632752 0.50342214,0.67142881 77.92 0 0 -0.58839,-0.371369 z M 8.5531,4.9827961 c 0,0 -0.42451,0.462084 -0.45081,1.561601 -0.0263,1.099519 0.67978,1.16473 0.67978,1.16473 0,0 0.31212,0.07769 0.93273,-0.592557 0.62061,-0.670232 0.66423,-0.639108 0.66423,-0.639108 0,0 0.17518,-0.123139 0.1955,0.187162 0.0202,0.310305 0.0879,1.255587 -0.85973,1.762597 -0.94766,0.507008 -1.40745,-0.739037 -1.40745,-0.739037 0,0 0.11957,1.874991 1.60114,1.628065 1.48157,-0.246929 1.41882,-1.972981 1.41882,-1.972981 0,0 0.002,-0.762916 -0.71268,-1.14975 -0.59311,-0.341394 -0.93397,0.02748 -0.99256,0.0861 -0.0586,0.0586 -1.26269,1.567086 -1.06897,-1.2968 z m 3.26864,0.917371 a 0.51358673,0.51358673 0 0 0 -0.47291,0.551033 0.50521582,0.50521582 0 0 0 0.0233,0.119533 c 0,0 0.29896,1.188566 1.90728,1.226828 0,-5.95e-4 -0.92799,-0.662388 -0.90647,-1.424696 a 0.51358673,0.51358673 0 0 0 -0.55122,-0.472718 z" /><path
     id="path25"
     style="color:#444444;fill:#ffffff;fill-opacity:0.8;stroke-width:1.108;stroke-linecap:round;stroke-linejoin:round;stroke-dasharray:none;paint-order:markers stroke fill"
     class="ColorScheme-Text"
     d="m 11.964416,11.353488 c -2.0877674,-9.79e-4 -3.7809724,1.690837 -3.7817064,3.778616 -9.76e-4,2.088991 1.692728,3.782695 3.7817064,3.781717 0.764969,-2.95e-4 1.511844,-0.23268 2.14194,-0.666448 l 2.517014,2.517012 c 0.129733,0.134845 0.30884,0.210971 0.495963,0.210785 0.379046,-0.0011 0.685539,-0.3091 0.685049,-0.688148 1.6e-4,-0.185591 -0.07476,-0.363359 -0.207686,-0.492865 l -2.520111,-2.520113 c 0.433771,-0.630095 0.666158,-1.376972 0.666451,-2.141941 -7.35e-4,-2.08657 -1.69205,-3.777886 -3.77862,-3.778617 z m 0,1.373198 c 1.328477,-2e-6 2.40542,1.076941 2.405421,2.405418 0,1.328479 -1.076943,2.405422 -2.405421,2.405421 -1.328472,0 -2.4054084,-1.076943 -2.4054084,-2.405421 2e-6,-1.328477 1.0769364,-2.405418 2.4054084,-2.405418 z m -1.199607,1.745171 c -0.0827,0 -0.163172,0.01267 -0.238679,0.04031 -0.07428,0.02757 -0.140851,0.0689 -0.198382,0.124003 -0.05633,0.05513 -0.09973,0.123106 -0.133299,0.204584 -0.03357,0.0803 -0.05269,0.175419 -0.05269,0.282078 0,0.106673 0.0172,0.200587 0.0496,0.28208 0.03236,0.08029 0.07697,0.146367 0.133299,0.201484 0.05632,0.05394 0.122887,0.09644 0.19838,0.124003 0.07549,0.02757 0.156698,0.04031 0.241779,0.04031 0.0875,0 0.16628,-0.01267 0.24178,-0.04031 0.07669,-0.02755 0.143247,-0.07004 0.198385,-0.124003 0.05512,-0.05513 0.09906,-0.121191 0.13018,-0.201484 0.03236,-0.0815 0.0496,-0.17542 0.0496,-0.28208 0,-0.106673 -0.0172,-0.201781 -0.0496,-0.282078 -0.03236,-0.0815 -0.07692,-0.149456 -0.133269,-0.204584 -0.05631,-0.05513 -0.122891,-0.09644 -0.198382,-0.124003 -0.07549,-0.02755 -0.153607,-0.04031 -0.238681,-0.04031 z m 1.435193,0 c -0.09107,0 -0.176284,0.01451 -0.254184,0.0434 -0.0779,0.02879 -0.145161,0.07077 -0.201484,0.127091 -0.05633,0.05513 -0.100944,0.123091 -0.133299,0.204582 -0.03236,0.08029 -0.0465,0.172818 -0.0465,0.275883 0,0.20733 0.05264,0.367808 0.158089,0.480462 0.106637,0.112648 0.259331,0.167382 0.461865,0.167382 0.09469,0 0.179176,-0.0086 0.251083,-0.0279 0.0719,-0.01919 0.127849,-0.04113 0.167383,-0.06513 l -0.07752,-0.226286 c -0.01573,0.007 -0.03351,0.01639 -0.0527,0.02482 -0.01919,0.0085 -0.03992,0.01759 -0.06513,0.02482 -0.02518,0.0061 -0.05443,0.01063 -0.08681,0.01572 -0.03238,0.0046 -0.07087,0.0061 -0.111585,0.0061 -0.06473,0 -0.118751,-0.01063 -0.164292,-0.03099 -0.04554,-0.02158 -0.08283,-0.05082 -0.111585,-0.08681 -0.02758,-0.03594 -0.04881,-0.07798 -0.06199,-0.127108 -0.01204,-0.05031 -0.01572,-0.10365 -0.01572,-0.161198 0,-0.0719 0.0086,-0.132528 0.0279,-0.182885 0.01918,-0.05031 0.04321,-0.09283 0.07437,-0.124002 0.03236,-0.03236 0.07088,-0.05382 0.111585,-0.0682 0.04194,-0.01436 0.08395,-0.0217 0.127092,-0.0217 0.06475,0 0.120172,0.0074 0.170491,0.0217 0.05152,0.01436 0.09804,0.03233 0.136405,0.05269 l 0.0806,-0.226283 c -0.0096,-0.0061 -0.02493,-0.01719 -0.0465,-0.02789 -0.02157,-0.01087 -0.04825,-0.01832 -0.0806,-0.0279 -0.03236,-0.01087 -0.07154,-0.02072 -0.114679,-0.02789 -0.04315,-0.0085 -0.08986,-0.0122 -0.142597,-0.0122 z m 0.948527,0.0122 c -0.05152,0 -0.110782,0.0042 -0.176689,0.0095 -0.06473,0.0046 -0.127957,0.01267 -0.189082,0.02482 v 1.227512 h 0.278975 V 15.29022 h 0.139493 c 0.02397,0.02878 0.04732,0.06326 0.07129,0.0992 0.02397,0.03475 0.04736,0.07203 0.07129,0.111585 0.02518,0.03957 0.05163,0.07894 0.07437,0.120883 0.02397,0.04194 0.04543,0.08325 0.0682,0.124002 h 0.316178 c -0.02155,-0.04553 -0.04613,-0.09274 -0.07129,-0.139494 -0.02518,-0.04795 -0.04992,-0.09322 -0.07752,-0.136403 -0.02636,-0.04434 -0.05612,-0.08445 -0.08371,-0.124003 -0.02755,-0.04073 -0.05234,-0.07734 -0.07752,-0.10848 0.07549,-0.03114 0.134042,-0.07314 0.173583,-0.127077 0.04073,-0.05513 0.05889,-0.126396 0.05889,-0.213884 0,-0.140235 -0.04931,-0.244063 -0.148791,-0.30998 -0.09946,-0.06711 -0.240812,-0.102287 -0.42777,-0.102287 z m -2.38372,0.232478 c 0.05152,0 0.09565,0.01169 0.136403,0.03098 0.04194,0.01919 0.07785,0.04464 0.105408,0.0806 0.02878,0.03476 0.05072,0.07678 0.06508,0.127077 0.01572,0.04915 0.02168,0.106259 0.02168,0.167381 0,0.06111 -0.0061,0.115139 -0.02168,0.164293 -0.01436,0.04914 -0.03632,0.09112 -0.06508,0.127076 -0.02755,0.03476 -0.06344,0.06142 -0.105408,0.0806 -0.04073,0.01919 -0.08485,0.03101 -0.136403,0.03101 -0.05275,0 -0.101817,-0.01169 -0.142581,-0.03101 -0.04077,-0.01918 -0.07353,-0.04582 -0.102306,-0.0806 -0.02755,-0.03594 -0.04951,-0.07794 -0.06509,-0.127076 -0.01436,-0.04915 -0.02168,-0.103171 -0.02168,-0.164293 0,-0.05994 0.0074,-0.115151 0.02168,-0.164294 0.01573,-0.05031 0.03753,-0.09233 0.06509,-0.127091 0.02878,-0.03592 0.06155,-0.06451 0.102306,-0.08366 0.04076,-0.02037 0.08986,-0.03098 0.142581,-0.03098 z m 2.343422,0.0092 c 0.01686,-0.0012 0.03543,0 0.05579,0 0.08987,0 0.155949,0.01087 0.201485,0.03721 0.04673,0.02518 0.07129,0.06905 0.07129,0.130181 0,0.06353 -0.02267,0.110026 -0.0682,0.136404 -0.04555,0.02634 -0.120819,0.03721 -0.226282,0.03721 h -0.0806 v -0.33796 c 0.01436,-0.0012 0.03091,-0.002 0.0465,-0.0032 z"
     sodipodi:nodetypes="scccccccccsssssssscccsccsscccscccssccccscsccccccscccscccscccccccccccccccccccccccccscccccccscccscccsccccccscscscccc" /></svg>
