<svg xmlns="http://www.w3.org/2000/svg" xmlns:xlink="http://www.w3.org/1999/xlink" xml:space="preserve" width="24" height="24" viewBox="0 0 24 24"><defs><linearGradient id="c" x1=".05" x2="1" y2="1" gradientTransform="matrix(22 0 0 22 -56.75 -22.125)" gradientUnits="userSpaceOnUse"><stop offset=".2" stop-color="#7e0000" style="stop-color:#2266d3;stop-opacity:1"/><stop offset=".205" stop-color="#ae0003" style="stop-color:#f1f2f2;stop-opacity:1"/><stop offset="1" stop-color="#7e0002" style="stop-color:#d1d3d4;stop-opacity:1"/></linearGradient><linearGradient id="d" x1="123.3" x2="8.261" y1="120.17" y2="13.466" gradientTransform="translate(53.824 2.949)scale(.18333)" gradientUnits="userSpaceOnUse"><stop offset="0" stop-color="#0257a9"/><stop offset="1" stop-color="#4c92d6"/></linearGradient><linearGradient xlink:href="#c" id="e" x1=".05" x2="1" y2="1" gradientTransform="scale(22)" gradientUnits="userSpaceOnUse"/></defs><rect width="22" height="22" x="1" y="1" fill="url(#d)" stroke="gray" stroke-opacity=".2" opacity=".9" rx="6.6" style="fill:url(#e);-inkscape-stroke:hairline" vector-effect="non-scaling-stroke"/><path d="M14.35 4.064q-.124 0-.262.024c-1.481.247-1.42 1.973-1.42 1.973s0 .763.713 1.15c.594.34.934-.03.992-.088s1.264-1.565 1.07 1.3c0 0 .425-.462.452-1.562s-.682-1.168-.682-1.168-.313-.079-.934.592c-.503.545-.628.627-.656.639l-.004.002h-.002s-.175.123-.195-.188c-.02-.31-.089-1.252.86-1.761.945-.51 1.406.738 1.406.738s-.104-1.65-1.338-1.65m-2.674.715a.503.671 77.92 0 0-.174.02.503.671 77.92 0 0-.553.633.503.671 77.92 0 0 .764.351.503.671 77.92 0 0 .55-.633.503.671 77.92 0 0-.587-.37m-3.123.213s-.425.462-.451 1.56c-.027 1.1.68 1.167.68 1.167s.312.078.933-.592c.523-.565.637-.634.66-.64h.004s.174-.124.195.187c.02.31.088 1.255-.86 1.762-.947.507-1.407-.739-1.407-.739s.118 1.874 1.6 1.627c1.481-.247 1.42-1.972 1.42-1.972s0-.764-.714-1.15c-.593-.34-.933.028-.992.087s-1.26 1.564-1.068-1.297m3.27.916a.514.514 0 0 0-.473.551.5.5 0 0 0 .021.12s.301 1.189 1.908 1.228c0-.001-.928-.664-.906-1.426a.514.514 0 0 0-.55-.473m.157 3.643a.4.4 0 0 0-.197.053c-.555.338-1.15.624-1.701.966l-.006.002a.4.4 0 0 0-.133.3c.002.313.005 1.079 0 1.837 0 .174.113.327.28.379l1.56.887a.4.4 0 0 0 .39 0l1.567-.89a.4.4 0 0 0 .278-.378q-.005-.918 0-1.836a.4.4 0 0 0-.278-.38l-1.566-.89v.003a.4.4 0 0 0-.194-.053m1.704 1.426s-.004.081.002 1.582a.33.33 0 0 1-.23.316c-.45.258-.905.51-1.356.764v-1.74zm-3.409.02 1.565.901v1.74c-.445-.249-.887-.51-1.33-.761a.33.33 0 0 1-.235-.318c.006-.933 0-1.563 0-1.563m4.649 1.196-.295.3a4.44 4.44 0 0 1 1.82 3.583 4 4 0 0 1-.008.26l.41.111a5 5 0 0 0 .012-.37 4.86 4.86 0 0 0-1.94-3.884m-5.863.024a4.86 4.86 0 0 0-1.91 3.86 5 5 0 0 0 .013.357l.41-.11a4 4 0 0 1-.008-.248 4.44 4.44 0 0 1 1.79-3.562zm2.92 1.955a.4.4 0 0 0-.198.053c-.555.338-1.15.622-1.701.964l-.006.004a.4.4 0 0 0-.133.3c.002.313.005 1.077 0 1.835 0 .174.113.33.28.381l1.56.885a.393.393 0 0 0 .39.002l1.567-.889a.4.4 0 0 0 .278-.379q-.005-.918 0-1.838a.4.4 0 0 0-.278-.379l-1.566-.888a.4.4 0 0 0-.194-.051m-3.8 2.642a.4.4 0 0 0-.195.053c-.555.339-1.15.623-1.7.965l-.007.004a.4.4 0 0 0-.133.299c.002.313.005 1.08 0 1.838 0 .174.113.327.28.379l1.56.886a.39.39 0 0 0 .391 0l1.566-.888a.4.4 0 0 0 .278-.38q-.005-.919 0-1.837a.4.4 0 0 0-.28-.38l-1.564-.888a.4.4 0 0 0-.195-.05m7.635 0a.4.4 0 0 0-.195.053c-.555.339-1.15.623-1.701.965l-.006.004a.4.4 0 0 0-.135.299c.002.313.005 1.08 0 1.838 0 .174.115.327.282.379l1.56.886a.39.39 0 0 0 .39 0l1.567-.888a.4.4 0 0 0 .276-.38q-.005-.919 0-1.837a.4.4 0 0 0-.278-.38l-1.564-.888a.4.4 0 0 0-.196-.05m-7.634.366q.087 0 .164.043.702.4 1.408.793l-1.588.918-1.568-.905c.428-.266 1.034-.571 1.42-.806a.33.33 0 0 1 .164-.043m7.634 0c.057 0 .115.015.164.043q.704.4 1.409.793l-1.588.918-1.569-.905c.429-.266 1.035-.571 1.42-.806a.33.33 0 0 1 .164-.043m-5.931 1.06c.006.044-.001.094.004 1.582a.33.33 0 0 1-.233.317q-.676.384-1.353.763v-1.748zm4.228.02 1.565.902v1.733q-.668-.376-1.332-.754a.33.33 0 0 1-.235-.319c.006-.933 0-1.528.002-1.562m-3.224 2.113-.215.373a4.9 4.9 0 0 0 1.334.188 4.9 4.9 0 0 0 1.287-.174l-.215-.373a4.4 4.4 0 0 1-1.072.13 4.4 4.4 0 0 1-1.117-.144z" style="fill:#377de2;fill-opacity:1;stroke-width:.0597892"/></svg>