<?xml version="1.0" encoding="UTF-8" standalone="no"?>
<!-- Created with Inkscape (http://www.inkscape.org/) -->

<svg
   version="1.1"
   id="svg1"
   width="24"
   height="24"
   viewBox="0 0 24 24"
   sodipodi:docname="steam-pass.svg"
   xml:space="preserve"
   inkscape:version="1.4.2 (ebf0e940d0, 2025-05-08)"
   inkscape:export-filename="../tac-writer.svg"
   inkscape:export-xdpi="960"
   inkscape:export-ydpi="960"
   xmlns:inkscape="http://www.inkscape.org/namespaces/inkscape"
   xmlns:sodipodi="http://sodipodi.sourceforge.net/DTD/sodipodi-0.dtd"
   xmlns:xlink="http://www.w3.org/1999/xlink"
   xmlns="http://www.w3.org/2000/svg"
   xmlns:svg="http://www.w3.org/2000/svg"><defs
     id="defs1"><linearGradient
       x1="22.1875"
       y1="23.0625"
       x2="5.318624"
       y2="5.3239861"
       gradientUnits="userSpaceOnUse"
       gradientTransform="scale(0.75)"
       spreadMethod="pad"
       id="linearGradient3"><stop
         style="stop-opacity:1;stop-color:#808080"
         offset="0"
         id="stop1" /><stop
         style="stop-opacity:1;stop-color:#ffffff"
         offset="1"
         id="stop3" /></linearGradient><clipPath
       id="a1fef5c689"><path
         d="M 9.484375 2.902344 L 24.726562 2.902344 L 24.726562 26.855469 L 9.484375 26.855469 Z M 9.484375 2.902344 "
         clip-rule="nonzero"
         id="path2" /></clipPath><clipPath
       id="76058d44ca"><path
         d="M 2.742188 7.5 L 27.417969 7.5 L 27.417969 21.289062 L 2.742188 21.289062 Z M 2.742188 7.5 "
         clip-rule="nonzero"
         id="path3-3" /></clipPath><linearGradient
       inkscape:collect="always"
       xlink:href="#linearGradient3"
       id="linearGradient2"
       x1="-3.7396357"
       y1="-1.9273093"
       x2="28.369373"
       y2="26.894825"
       gradientUnits="userSpaceOnUse" /></defs><sodipodi:namedview
     id="namedview1"
     pagecolor="#ffffff"
     bordercolor="#000000"
     borderopacity="0.25"
     inkscape:showpageshadow="2"
     inkscape:pageopacity="0.0"
     inkscape:pagecheckerboard="0"
     inkscape:deskcolor="#d1d1d1"
     inkscape:zoom="5.7484473"
     inkscape:cx="-32.704483"
     inkscape:cy="3.3922203"
     inkscape:window-width="1920"
     inkscape:window-height="1005"
     inkscape:window-x="0"
     inkscape:window-y="0"
     inkscape:window-maximized="1"
     inkscape:current-layer="g1"><inkscape:page
       x="0"
       y="0"
       width="24"
       height="24"
       id="page2"
       margin="0"
       bleed="0" /></sodipodi:namedview><g
     id="g1"
     inkscape:groupmode="layer"
     inkscape:label="1"><path
       id="path3"
       d="m 5.699,0.75 h 6.602 c 2.742,0 4.949,2.207 4.949,4.949 v 6.602 c 0,2.742 -2.207,4.949 -4.949,4.949 H 5.699 C 2.957,17.25 0.75,15.043 0.75,12.301 V 5.699 C 0.75,2.957 2.957,0.75 5.699,0.75 Z"
       style="fill:#1a1a1a;stroke:none"
       transform="scale(1.3333333)" /><g
       id="g2"
       transform="matrix(0.49880445,0,0,0.49880445,5.9610886,5.7740373)"
       style="fill-opacity:1;fill:url(#linearGradient2)"><g
         clip-path="url(#a1fef5c689)"
         id="g6"
         transform="matrix(1.3333333,0,0,1.3333333,-7.9999995,-7.3541662)"
         style="fill-opacity:1;fill:url(#linearGradient2)"><path
           fill="#000000"
           d="m 11.828125,2.902344 c -0.257813,0 -0.507813,0.042968 -0.75,0.125 -0.246094,0.085937 -0.46875,0.210937 -0.675781,0.371094 -0.203125,0.160156 -0.375,0.347656 -0.519532,0.566406 -0.144531,0.21875 -0.25,0.457031 -0.316406,0.710937 C 9.5,4.929688 9.476562,5.1875 9.492188,5.453125 9.507812,5.714844 9.566406,5.96875 9.664062,6.210938 9.765625,6.453125 9.898438,6.675781 10.066406,6.875 c 0.171875,0.195312 0.367188,0.363281 0.589844,0.492188 v 15.015624 c -0.222656,0.132813 -0.417969,0.296876 -0.589844,0.496094 -0.167968,0.199219 -0.300781,0.417969 -0.402344,0.664063 -0.097656,0.242187 -0.15625,0.496093 -0.171874,0.757812 -0.015626,0.261719 0.00781,0.519531 0.074218,0.773438 0.066406,0.257812 0.171875,0.492187 0.316406,0.710937 0.144532,0.21875 0.316407,0.410156 0.519532,0.570313 0.207031,0.160156 0.429687,0.28125 0.675781,0.367187 0.242187,0.08594 0.492187,0.128906 0.75,0.128906 0.257813,0 0.511719,-0.04297 0.753906,-0.128906 0.246094,-0.08594 0.46875,-0.207031 0.671875,-0.367187 0.207032,-0.160157 0.378906,-0.351563 0.523438,-0.570313 0.144531,-0.21875 0.25,-0.453125 0.316406,-0.710937 0.06641,-0.253907 0.08984,-0.511719 0.07422,-0.773438 -0.01563,-0.261719 -0.07422,-0.515625 -0.171875,-0.757812 -0.101563,-0.246094 -0.234375,-0.464844 -0.402344,-0.664063 -0.171875,-0.199218 -0.367188,-0.363281 -0.589844,-0.496094 v -6.339843 c 1.089844,1.164062 2.453125,2.078125 4.082032,2.449219 l 3.0625,0.695312 c 0.15625,0.5 0.4375,0.902344 0.851562,1.210938 0.410156,0.308593 0.875,0.464843 1.386719,0.464843 0.308593,0 0.609375,-0.05859 0.894531,-0.183593 0.289062,-0.121094 0.542969,-0.292969 0.761719,-0.515626 0.222656,-0.226562 0.390625,-0.484374 0.507812,-0.777343 0.121094,-0.296875 0.179688,-0.601563 0.179688,-0.917969 0,-0.316406 -0.05859,-0.625 -0.179688,-0.917969 C 24.433594,17.257812 24.265625,17 24.042969,16.773438 c -0.21875,-0.222657 -0.472657,-0.394532 -0.761719,-0.515626 -0.285156,-0.125 -0.585938,-0.183593 -0.894531,-0.183593 -0.6875,0 -1.265625,0.257812 -1.726563,0.777343 L 17.59375,16.15625 C 14.902344,15.546875 13.003906,13.125 13.003906,10.3125 V 7.367188 C 13.226562,7.238281 13.421875,7.070312 13.59375,6.875 13.761719,6.675781 13.894531,6.453125 13.996094,6.210938 14.09375,5.96875 14.152344,5.714844 14.167969,5.453125 14.183594,5.1875 14.160156,4.929688 14.09375,4.675781 14.027344,4.421875 13.921875,4.183594 13.777344,3.964844 13.632812,3.746094 13.460938,3.558594 13.253906,3.398438 13.050781,3.238281 12.828125,3.113281 12.582031,3.027344 c -0.242187,-0.082032 -0.496093,-0.125 -0.753906,-0.125 z m 0,0"
           fill-opacity="1"
           fill-rule="nonzero"
           id="path6"
           style="fill-opacity:1;fill:url(#linearGradient2)" /></g><g
         clip-path="url(#76058d44ca)"
         id="g7"
         transform="matrix(1.3333333,0,0,1.3333333,-7.9999995,-7.3541662)"
         style="fill-opacity:1;fill:url(#linearGradient2)"><path
           fill="#000000"
           d="m 6.371094,12.5 c 0.152344,0 0.304687,0.0078 0.457031,0.02734 0.066406,0.0078 0.128906,0.01563 0.195313,0.02734 0.117187,-0.898438 0.554687,-1.703126 1.199218,-2.292969 0.695313,-0.640625 1.636719,-1.035157 2.671875,-1.035157 0.273438,0 0.539063,0.027344 0.800781,0.082032 0.195313,0.039062 0.386719,0.09375 0.570313,0.160156 0.285156,-0.5625 0.71875,-1.039062 1.25,-1.382812 0.574219,-0.371094 1.261719,-0.585938 2,-0.585938 0.675781,0 1.304687,0.175781 1.84375,0.488281 C 17.875,8.285156 18.304688,8.699219 18.613281,9.195312 18.722656,9.175781 18.832031,9.15625 18.9375,9.144531 19.101562,9.125 19.265625,9.117188 19.429688,9.117188 c 1.0625,0 2.035156,0.390624 2.769531,1.027343 0.695312,0.605469 1.179687,1.429688 1.339843,2.363281 h 0.01563 C 23.636719,12.5 23.714844,12.5 23.789062,12.5 c 1,0 1.910157,0.394531 2.566407,1.035156 0.65625,0.644532 1.0625,1.527344 1.0625,2.507813 0,0.976562 -0.40625,1.863281 -1.0625,2.503906 -0.65625,0.640625 -1.566407,1.039063 -2.566407,1.039063 -0.421874,0 -0.828124,-0.07422 -1.207031,-0.203126 -0.289062,-0.101562 -0.5625,-0.234374 -0.8125,-0.398437 -0.226562,0.628906 -0.632812,1.175781 -1.160156,1.578125 -0.597656,0.453125 -1.351563,0.726562 -2.164063,0.726562 -0.65625,0 -1.269531,-0.175781 -1.796874,-0.480468 -0.453126,-0.265625 -0.84375,-0.625 -1.132813,-1.050782 -0.398437,0.429688 -0.875,0.785157 -1.414063,1.039063 C 13.496094,21.089844 12.808594,21.25 12.085938,21.25 11.234375,21.25 10.433594,21.023438 9.75,20.628906 9.105469,20.257812 8.5625,19.738281 8.171875,19.117188 7.933594,19.25 7.679688,19.359375 7.414062,19.4375 c -0.332031,0.09375 -0.679687,0.148438 -1.042968,0.148438 -1,0 -1.910156,-0.398438 -2.566406,-1.039063 -0.65625,-0.640625 -1.0625,-1.527344 -1.0625,-2.503906 0,-0.980469 0.40625,-1.863281 1.0625,-2.507813 C 4.460938,12.894531 5.371094,12.5 6.371094,12.5 Z m 0.402344,0.453125 c -0.132813,-0.01563 -0.265626,-0.02734 -0.402344,-0.02734 -0.878906,0 -1.675782,0.351563 -2.253906,0.914063 -0.578126,0.5625 -0.933594,1.34375 -0.933594,2.203125 0,0.859375 0.355468,1.636719 0.933594,2.199219 0.578124,0.566406 1.375,0.914062 2.253906,0.914062 0.320312,0 0.628906,-0.04687 0.917968,-0.128906 0.296876,-0.08984 0.578126,-0.21875 0.832032,-0.382813 l 0.019531,-0.01172 c 0.109375,-0.05469 0.242187,-0.01953 0.300781,0.08594 0.359375,0.636719 0.890625,1.171875 1.53125,1.542969 0.617188,0.355469 1.34375,0.5625 2.113282,0.5625 0.65625,0 1.273437,-0.148438 1.824218,-0.410157 0.574219,-0.273437 1.070313,-0.667968 1.457032,-1.152343 0.01953,-0.02344 0.04297,-0.04297 0.07031,-0.05859 0.105469,-0.05859 0.238281,-0.01953 0.296875,0.08594 0.265625,0.476563 0.660156,0.875 1.136719,1.148438 0.460937,0.269531 0.996094,0.421875 1.574218,0.421875 0.714844,0 1.371094,-0.238281 1.894532,-0.632813 0.535156,-0.410156 0.925781,-0.984374 1.09375,-1.644531 0.0078,-0.03125 0.02344,-0.05859 0.04297,-0.08594 0.07422,-0.08984 0.214844,-0.105469 0.308594,-0.03125 0.277344,0.21875 0.597656,0.394531 0.941406,0.515625 0.332032,0.113281 0.6875,0.175781 1.0625,0.175781 0.878907,0 1.679688,-0.347656 2.253907,-0.914062 0.578125,-0.5625 0.933593,-1.339844 0.933593,-2.199219 0,-0.859375 -0.355468,-1.640625 -0.933593,-2.203125 -0.574219,-0.5625 -1.375,-0.914063 -2.253907,-0.914063 -0.07422,0 -0.144531,0.0039 -0.207031,0.0078 -0.06641,0.0039 -0.128906,0.01172 -0.1875,0.01563 l -0.01953,0.0039 C 23.253907,12.96484 23.148439,12.88281 23.132813,12.76562 23.027345,11.855464 22.57422,11.04687 21.910157,10.464839 21.25,9.894531 20.382812,9.546875 19.429688,9.546875 c -0.148438,0 -0.296876,0.00781 -0.441407,0.023437 C 18.84375,9.585938 18.703125,9.613281 18.570312,9.640625 18.472656,9.671875 18.363281,9.632812 18.3125,9.542969 18.035156,9.050781 17.628906,8.640625 17.136719,8.359375 16.664062,8.085938 16.109375,7.925781 15.515625,7.925781 c -0.648437,0 -1.253906,0.191407 -1.757813,0.515625 -0.519531,0.335938 -0.929687,0.8125 -1.175781,1.375 l -0.0078,0.015625 C 12.527344,9.941406 12.398438,9.988281 12.285156,9.941406 12.070312,9.847656 11.84375,9.777344 11.605469,9.726562 11.378906,9.679688 11.140625,9.65625 10.894531,9.65625 c -0.917969,0 -1.753906,0.347656 -2.371093,0.917969 -0.621094,0.570312 -1.027344,1.359375 -1.085938,2.242187 0,0.01953 0,0.03516 -0.00391,0.05469 -0.03125,0.113281 -0.152344,0.183594 -0.269532,0.152344 -0.125,-0.03125 -0.257812,-0.05469 -0.390624,-0.07031 z m 0,0"
           fill-opacity="1"
           fill-rule="nonzero"
           id="path7"
           style="fill-opacity:1;fill:url(#linearGradient2)" /></g></g></g></svg>
