<?xml version="1.0" encoding="UTF-8"?>
<svg width="1024" height="1024" viewBox="0 0 1024 1024" xmlns="http://www.w3.org/2000/svg">
  <defs>
    <linearGradient id="bg" x1="0" y1="0" x2="1024" y2="1024" gradientUnits="userSpaceOnUse">
      <stop offset="0" stop-color="#7C3AED"/>
      <stop offset="0.55" stop-color="#5B5BF0"/>
      <stop offset="1" stop-color="#2563EB"/>
    </linearGradient>
    <linearGradient id="gloss" x1="0" y1="0" x2="0" y2="1024" gradientUnits="userSpaceOnUse">
      <stop offset="0" stop-color="#ffffff" stop-opacity="0.20"/>
      <stop offset="0.5" stop-color="#ffffff" stop-opacity="0"/>
    </linearGradient>
    <filter id="soft" x="-20%" y="-20%" width="140%" height="140%">
      <feDropShadow dx="0" dy="10" stdDeviation="16" flood-color="#1e1b4b" flood-opacity="0.35"/>
    </filter>
  </defs>
  <rect x="96" y="96" width="832" height="832" rx="196" fill="url(#bg)"/>
  <rect x="96" y="96" width="832" height="832" rx="196" fill="url(#gloss)"/>

  <!-- wordmark "big" (família BigLinux), em cima -->
  <g transform="translate(-8,4) scale(46) translate(-148.25185,-43.297678)" fill="#ffffff" filter="url(#soft)">
    <path d="m 162.60111,47.421285 c -0.0823,-1.39e-4 -0.16956,0.007 -0.26215,0.02248 -1.48157,0.247523 -1.41872,1.973072 -1.41872,1.973072 0,0 -5e-5,0.763515 0.71202,1.149751 0.5931,0.341392 0.93456,-0.02752 0.99255,-0.08553 0.058,-0.05801 1.26393,-1.567077 1.07021,1.298602 0,0 0.42391,-0.461582 0.45082,-1.561696 0.0269,-1.100115 -0.68102,-1.168239 -0.68102,-1.168239 0,0 -0.31212,-0.07836 -0.93273,0.591894 -0.62061,0.670234 -0.66367,0.64034 -0.66367,0.64034 0,0 -0.17513,0.12373 -0.19606,-0.187142 -0.0209,-0.310902 -0.0873,-1.252531 0.85973,-1.761933 0.94705,-0.5094 1.4081,0.738941 1.4081,0.738941 0,0 -0.10517,-1.648429 -1.33908,-1.650531 z m -2.67305,0.713346 a 0.50342214,0.67142881 77.92 0 0 -0.1735,0.01964 0.50342214,0.67142881 77.92 0 0 -0.55122,0.632754 0.50342214,0.67142881 77.92 0 0 0.76188,0.35174 0.50342214,0.67142881 77.92 0 0 0.55123,-0.632752 0.50342214,0.67142881 77.92 0 0 -0.58839,-0.371369 z m -3.12311,0.213226 c 0,0 -0.42451,0.462084 -0.45081,1.561601 -0.0263,1.099519 0.67978,1.16473 0.67978,1.16473 0,0 0.31212,0.07769 0.93273,-0.592557 0.62061,-0.670232 0.66423,-0.639108 0.66423,-0.639108 0,0 0.17518,-0.123139 0.1955,0.187162 0.0202,0.310305 0.0879,1.255587 -0.85973,1.762597 -0.94766,0.507008 -1.40745,-0.739037 -1.40745,-0.739037 0,0 0.11957,1.874991 1.60114,1.628065 1.48157,-0.246929 1.41882,-1.972981 1.41882,-1.972981 0,0 0.002,-0.762916 -0.71268,-1.14975 -0.59311,-0.341394 -0.93397,0.02748 -0.99256,0.0861 -0.0586,0.0586 -1.26269,1.567086 -1.06897,-1.2968 z m 3.26864,0.917371 a 0.51358673,0.51358673 0 0 0 -0.47291,0.551033 0.50521582,0.50521582 0 0 0 0.0233,0.119533 c 0,0 0.29896,1.188566 1.90728,1.226828 0,-5.95e-4 -0.92799,-0.662388 -0.90647,-1.424696 a 0.51358673,0.51358673 0 0 0 -0.55122,-0.472718 z"/>
  </g>

  <!-- play, embaixo -->
  <path d="M 432 540 Q 408 526 408 558 L 408 828 Q 408 860 432 846 L 700 688 Q 726 672 700 656 Z"
        fill="#ffffff" filter="url(#soft)"/>
</svg>
