<?xml version="1.0" encoding="UTF-8" standalone="no"?>
<svg
   viewBox="0 0 32 32"
   version="1.1"
   id="svg11414"
   sodipodi:docname="snapshot.svg"
   width="32"
   height="32"
   xml:space="preserve"
   inkscape:version="1.4 (e7c3feb100, 2024-10-09)"
   inkscape:export-filename="restaurar.png"
   inkscape:export-xdpi="800"
   inkscape:export-ydpi="800"
   xmlns:inkscape="http://www.inkscape.org/namespaces/inkscape"
   xmlns:sodipodi="http://sodipodi.sourceforge.net/DTD/sodipodi-0.dtd"
   xmlns="http://www.w3.org/2000/svg"
   xmlns:svg="http://www.w3.org/2000/svg"><sodipodi:namedview
     id="namedview11416"
     pagecolor="#ffffff"
     bordercolor="#000000"
     borderopacity="0.25"
     inkscape:showpageshadow="2"
     inkscape:pageopacity="0.0"
     inkscape:pagecheckerboard="0"
     inkscape:deskcolor="#d1d1d1"
     showgrid="false"
     inkscape:zoom="22.627417"
     inkscape:cx="20.395611"
     inkscape:cy="14.009553"
     inkscape:window-width="2752"
     inkscape:window-height="1081"
     inkscape:window-x="0"
     inkscape:window-y="0"
     inkscape:window-maximized="1"
     inkscape:current-layer="svg11414" /><defs
     id="defs11384"><style
       id="style11382">.cls-1{fill:#069;}.cls-2{fill:#2991c9;}.cls-3{fill:#fff;}.cls-4{fill:#002a44;}.cls-5{fill:#3380cc;}.cls-6{fill:#cc5e55;}</style><radialGradient
       id="paint0_radial_29_23"
       cx="0"
       cy="0"
       r="1"
       gradientUnits="userSpaceOnUse"
       gradientTransform="matrix(0,22,-22,0,11.999988,1.0000149)"><stop
         stop-color="#8FC8FF"
         id="stop11537" /><stop
         offset="1"
         stop-color="#0056A8"
         id="stop11539"
         style="stop-color:#006699;stop-opacity:1;" /></radialGradient><radialGradient
       id="paint0_radial_1_40"
       cx="0"
       cy="0"
       r="1"
       gradientUnits="userSpaceOnUse"
       gradientTransform="matrix(0,24,-24,0,-2.29062,44.73684)"><stop
         stop-color="#C2E5FF"
         id="stop11601" /><stop
         offset="1"
         stop-color="#3276AA"
         id="stop11603" /></radialGradient><radialGradient
       fx="0"
       fy="0"
       cx="0"
       cy="0"
       r="1"
       gradientUnits="userSpaceOnUse"
       gradientTransform="matrix(0,16.5,-16.5,0,8.999991,0.750011)"
       spreadMethod="pad"
       id="radialGradient16463"><stop
         style="stop-opacity:1;stop-color:#8fc8ff"
         offset="0"
         id="stop16459" /><stop
         style="stop-opacity:1;stop-color:#006699"
         offset="1"
         id="stop16461" /></radialGradient><clipPath
       clipPathUnits="userSpaceOnUse"
       id="clipPath16473"><path
         d="M 0,0 H 151 V 116 H 0 Z"
         id="path16471" /></clipPath><radialGradient
       fx="0"
       fy="0"
       cx="0"
       cy="0"
       r="1"
       gradientUnits="userSpaceOnUse"
       gradientTransform="matrix(0,16.5,-16.5,0,8.999991,0.750011)"
       spreadMethod="pad"
       id="radialGradient16463-5"><stop
         style="stop-opacity:1;stop-color:#8fc8ff"
         offset="0"
         id="stop16459-9" /><stop
         style="stop-opacity:1;stop-color:#006699"
         offset="1"
         id="stop16461-4" /></radialGradient><clipPath
       clipPathUnits="userSpaceOnUse"
       id="clipPath16473-9"><path
         d="M 0,0 H 151 V 116 H 0 Z"
         id="path16471-0" /></clipPath></defs><g
     id="g2"
     transform="matrix(1.4376351,0,0,1.4376351,-36.918408,-2.241392)"
     style="fill:#ffffff"><path
       id="path16489"
       style="fill:#ffffff;fill-opacity:1;fill-rule:nonzero;stroke:none;stroke-width:1.33333"
       d="M 36.658625,4.8020822 C 35.925628,4.7881398 35.181521,4.8764 34.447688,5.0735666 32.777022,5.5268999 31.339683,6.4918844 30.309016,7.782551 29.444384,8.8605491 28.85923,10.168367 28.64886,11.581379 l -1.152344,-1.152344 c -0.281333,-0.281333 -0.740151,-0.281333 -1.021484,0 -0.281333,0.281334 -0.281333,0.738725 0,1.025391 l 2.322266,2.318359 c 0.0521,0.05284 0.111814,0.09564 0.173828,0.128907 7.7e-4,4.13e-4 0.0012,0.0015 0.002,0.002 0.0201,0.01065 0.04167,0.01871 0.0625,0.02734 7.93e-4,3.28e-4 0.0012,0.0016 0.002,0.002 0.08696,0.03567 0.178984,0.05273 0.271484,0.05273 0.185,0 0.369099,-0.07022 0.509766,-0.212891 l 2.322266,-2.324218 c 0.281333,-0.281333 0.281333,-0.732865 0,-1.019532 -0.286667,-0.281333 -0.738724,-0.281333 -1.025391,0 l -0.960937,0.962891 c 0.501841,-2.3574658 2.281658,-4.2781225 4.669921,-4.921875 1.797089,-0.4802116 3.657209,-0.164912 5.15625,0.78125 0.0092,0.00642 0.01584,0.015429 0.02539,0.021484 0.14975,0.095333 0.293875,0.195111 0.433593,0.3007812 0.05973,0.045348 0.119473,0.091166 0.177735,0.1386719 0.0097,0.00784 0.01969,0.01555 0.0293,0.023437 0.02051,0.016918 0.04023,0.035549 0.06055,0.052734 0.112489,0.094756 0.221189,0.1916555 0.326171,0.2929687 0.113535,0.109994 0.224047,0.2228386 0.330079,0.3417969 0.0092,0.010301 0.01819,0.020896 0.02734,0.03125 0.220062,0.2500787 0.422237,0.5190702 0.605469,0.8066406 0.0043,0.00683 0.0092,0.012899 0.01367,0.019531 0.949513,1.4995327 1.26805,3.3610017 0.787109,5.1582027 -0.734667,2.749333 -3.159906,4.693025 -6.003906,4.818359 -0.401334,0.016 -0.709359,0.35338 -0.693359,0.748047 0.01467,0.401333 0.354526,0.70936 0.755859,0.69336 3.469334,-0.150666 6.442417,-2.535432 7.34375,-5.884766 h -0.0059 c 0.448,-1.677333 0.329135,-3.402026 -0.269532,-4.943359 C 43.696099,9.2901927 43.400105,8.7356825 43.041491,8.2201354 42.984521,8.1380854 42.925356,8.0593032 42.86571,7.979901 42.86091,7.973571 42.85681,7.966685 42.85204,7.96037 c -0.0582,-0.077 -0.119043,-0.1521022 -0.179688,-0.2265625 -0.0067,-0.00826 -0.01276,-0.017152 -0.01953,-0.025391 -0.02767,-0.033692 -0.05583,-0.066447 -0.08398,-0.099609 -0.04066,-0.047873 -0.08119,-0.095592 -0.123047,-0.1425781 -0.0058,-0.00655 -0.01173,-0.013007 -0.01758,-0.019531 -0.05575,-0.06217 -0.112098,-0.1230437 -0.169922,-0.1835937 -0.29461,-0.308499 -0.611868,-0.591551 -0.947266,-0.8457032 -0.0078,-0.00589 -0.01566,-0.011716 -0.02344,-0.017578 -0.07835,-0.058922 -0.156023,-0.1160065 -0.236328,-0.171875 -0.005,-0.0035 -0.0106,-0.00628 -0.01563,-0.00977 -0.08356,-0.057845 -0.168352,-0.1154177 -0.253906,-0.1699219 -0.002,-0.00128 -0.0038,-0.00265 -0.0059,-0.00391 C 39.549808,5.2647325 38.124621,4.8299672 36.658625,4.8020822 Z" /><rect
       style="fill:#ffffff;stroke-width:1.43149"
       id="rect1"
       width="1.5418408"
       height="5.2640619"
       x="35.834599"
       y="8.2736149"
       rx="0.7709204"
       ry="0.7709204" /><rect
       style="fill:#ffffff;stroke-width:1.43149"
       id="rect2"
       width="1.5418408"
       height="5.2640619"
       x="16.079578"
       y="34.230442"
       rx="0.7709204"
       ry="0.7709204"
       transform="rotate(-45)" /></g></svg>
